<?xml version="1.0" encoding="UTF-8"?>
<svg id="Layer_1" xmlns="http://www.w3.org/2000/svg" version="1.1" viewBox="0 0 1427.57 870.27">
  <!-- Generator: Adobe Illustrator 29.8.10, SVG Export Plug-In . SVG Version: 2.1.1 Build 2)  -->
  <defs>
    <style>
      .st0 {
        fill: none;
        stroke: #000;
        stroke-linecap: round;
        stroke-linejoin: round;
        stroke-width: 2px;
      }
    </style>
  </defs>
  <path class="st0" d="M258.83,293.81c-5.13-1.56-6.76-.96-9.44,5.02-6.92,15.41-13.45,30.98-19.02,46.94-4.01,11.48-7.13,23.04-7.16,35.46-.04,15.02,7.42,30.12,25.6,36.05,2.83.92,5.72.88,8.56,1.78,7.11,2.25,14.37,3.86,21.97,1.72,2.66-.75,4.78,1,3.88,3.87-1.75,5.59-2.78,10.82-.07,16.59,1.57,3.33-1.22,6.96-2.04,10.37-2.34,9.79-2.47,19.81.53,28.91,4.12,12.51,1.22,23.85-1.82,35.58-4,15.44-7.51,31.01-11.52,46.45-3.37,12.98-7.45,25.73-13.03,37.94-3.03,6.64-8.68,11.15-13.89,16.06-11.08,10.44-22.65,20.41-31.08,33.38-7.63,11.74-12.04,24.97-17.83,37.54-4.16,9.04-8.23,17.96-15.59,24.94-3.5,3.32-5.27,7.27-2.95,11.95,1.32,2.67-.34,3.65-2.08,4.48-2.84,1.35-5.07,3.18-6.49,6.03-2.54,5.1-6.72,8.7-11.51,11.44-6.39,3.65-11.12,9.25-16.85,13.68-5.03,3.89-5.23,10.41-1.02,16.79,3.57,5.41,8.3,9.97,12.92,14.53,1.61,1.59,3.64,2.35,5.98,2.02,3.47-.49,5.75,1.12,7.52,3.98,2.37,3.82,4.6,7.6,6.1,11.96,2.67,7.78,7.13,14.64,14.44,18.89,1.95,1.13,2.99,2.72,4.56,3.74-.49,3.37-2.27,4.06-5.12,4.52-6.44,1.03-12.7-.38-19-.75-9.51-.56-19-.47-28.49-.28-11.07.23-21.88-1.76-32.44-4.28-18.31-4.36-34.7-.47-50.53,8.64-13.71,7.9-26.36,17.46-39.99,25.44-3.33,1.95-6.7,4.35-10.95,4.07"/>
  <path class="st0" d="M801.98,262.84c1.02.28,1.98.73,3,1,2.96.76,3.53,1.81,2.14,5.06-4.88,11.41-7.79,23.33-7.15,35.9.23,4.56.93,9.09,2.08,13.47,1.87,7.07,1.36,14.12-.18,20.98-3.03,13.48-5.61,27.06-8.92,40.48-3.85,15.61-6.93,31.44-12.91,46.48-2.84,7.14-7.36,12.97-12.53,18.48-8.73,9.31-16.99,19.02-21.96,30.97-3.85,9.25-6.41,18.95-9.47,28.48-3.67,11.43-8.33,22.3-15.58,31.93-2.37,3.15-3.51,6.16-1.59,10.07.69,1.41.69,3.86-1.88,4.42-3.3.71-4.2,3.36-4.96,6.02-1.56,5.46-4.29,10.09-8.48,14.02-4.69,4.39-8.21,9.81-12.01,14.96-3.63,4.9-3.12,10.01,1.51,13.94,4.36,3.7,9.22,6.66,14.41,9.12,1.04.49,2.09,1.32,3.02.84,4.82-2.49,7.51.76,10.55,3.53,3.51,3.2,6.02,7.26,9.45,10.54,5.9,5.64,12.46,9.38,21.01,8.49,6.85-.71,13.81-.41,20.49-2.51,3.83-1.21,7.06-5.31,6.99-9-.06-3.63-3.64-8.13-7.51-8.94-3.48-.72-7.01-1.34-10.46-2.14-4.23-.99-7.65-2.57-9.29-7.81-1.85-5.92-3.9-11.93-6.71-17.57-1.48-2.96-1.48-6.02,0-8.98,4.91-9.77-.32-14.75-8.51-17.49"/>
  <path class="st0" d="M1426.57,204.89c-6.12-.69-11.53,2.54-17.45,3.32-3.55.47-7.32,1.22-10.49.49-16.26-3.71-28.93,3.75-41.54,12.14-12.26,8.16-20.04,19.82-25.31,33.06-4.27,10.74-10.56,18.39-20.99,24.19-21.16,11.77-39.88,26.79-53.17,47.65-3.33,5.23-7.92,8.6-14.39,10.22-10.14,2.54-19.78,6.68-29.08,11.69-15.57,8.4-22.53,23.18-29.36,38.09-2.42,5.28-5.16,10.32-8.62,14.91-4.94,6.56-12.09,8.61-19.93,8.49-6.34-.1-12.72-.09-18.98.64-21.57,2.54-40.72,9.76-53.52,28.84-5.64,8.4-12,16.29-20.97,21.46-2.99,1.72-6.07,4.17-9.96,2.05"/>
  <path class="st0" d="M471.19,412.19c-1.48,5.61-3.13,11.23-5.6,16.43-3.42,7.21-2.28,15.27-4.92,22.52-14.11,38.69-27.28,77.72-41.24,116.47-7.27,20.2-14.26,40.53-21.29,60.83-12.04,34.78-24.02,69.59-35.83,104.45-1.59,4.7-2.69,9.55-5.05,13.97"/>
  <path class="st0" d="M361.27,504.1c3.77,3.53,2.85,7.32,1.05,11.51-10.86,25.13-23.64,49.29-36.56,73.39-5.81,10.83-11.46,21.75-17.38,32.53-5.11,9.31-12.51,16.45-20.61,22.87-10.32,8.18-18.23,18.46-26.44,28.53-11,13.49-21.44,27.39-31.02,41.93-5.53,8.4-10.75,16.88-13.98,26.49-2.37,7.02-3.83,7.6-13.93,7.01-.32,2.05.83,3.75,2.05,4.92,3.01,2.9,2.82,6.35.81,8.97-5.43,7.12-4.03,14.87-2.78,22.55.76,4.66,1.92,9.24,1.9,14-.02,6.12,1.62,7.78,7.44,10.11,3.47,1.39,7.08,1.27,10.58,2.25,11.94,3.33,14.56,10.99,6.46,20.11-.5.57-.89,1.22-1,1.99"/>
  <path class="st0" d="M866.94,329.27c4.92,4.69,2.63,10.1.9,14.95-8.68,24.38-19.96,47.55-32.82,70-3.33,5.81-5.7,12.15-8.09,18.43-3.9,10.23-9.97,19.12-18.53,25.89-6.31,4.99-10.56,11.41-14.32,18.14-8.62,15.44-18.89,29.83-28.07,44.91-5.85,9.6-12.19,19-14,30.46-.81,5.12-5.4,5.99-8.99,7.99"/>
  <path class="st0" d="M471.19,448.16c17.08,6.59,34.18,13.07,49.5,23.43,7.74,5.24,11.1,12.41,11.51,21.52.62,13.88-3.58,26.92-7.21,39.92-6.45,23.04-12.25,46.23-17.72,69.5-1.37,5.82-1.84,11.88-1.66,17.96.18,6.09-4.57,12.36-10.45,13.95-6.37,1.72-12.81,3.13-19.48,3.04"/>
  <path class="st0" d="M1083.8,153.94c1.14,4.13,2.56,8.48,2.74,12.5.81,17.83,6.89,34.56,9.91,51.91,3.03,17.42,7.04,34.69,10.88,51.97,2.73,12.31,5.41,24.64,7.73,37.02,1.22,6.5.31,13.3,2.06,19.98,2.9,11.05,5.09,22.28,7.63,33.43,1.08,4.74,3.37,9.12,4.01,13.98"/>
  <path class="st0" d="M570.63,371.23c1.89,3.33.61,6.72-.11,9.97-.42,1.89-.96,4.12-.25,5.45,3.24,6.07.48,12.06.35,18.06-.15,7.35-2.31,14.8-1.23,21.94,1.57,10.36.02,20.36-.76,30.51-1.07,13.83-2.23,27.65-3.4,41.47-.84,9.97-1.26,20-2.22,29.95-1.11,11.48-1.49,23.01-2.7,34.5-.84,7.93-1.12,15.97-1.6,23.96-1.04,17.16-2.09,34.32-3.57,51.45"/>
  <path class="st0" d="M408.73,397.7c.36,2.82.07,5.81-1.61,7.9-2.37,2.96-2.14,5.87-1.39,9.08,1.31,5.61-3.7,10.92-8.95,8.89-13.77-5.32-26.26-1.23-38.49,4.65-11.07,5.32-21.9,11.11-33.99,14-5.98,1.43-11.97,1.53-18,1.42-11.67-.22-13.09,5.37-12.78,12.99.53,13.22,6.56,23.87,17.74,31.53,10.18,6.97,21.74,9.61,33.5,12,3.84.78,7.74,1.32,11.51,2.43,5.09,1.5,10.29-.37,15.52.85,7.18,1.66,14.65,1.89,21.98,2.97,4.08.6,8.32.99,12.47,1.08,9.17.19,18.33.53,27.48,1.09"/>
  <path class="st0" d="M739.52,631.48c-1.17,1.91-3.37,1.82-5,1.89-9.35.38-18.66,1.42-27.97,2.2-14.65,1.22-29.44,2.58-42.92,9.02-9.89,4.72-17.65,12.31-24.62,20.8-3.79,4.62-7.97,8.95-12.29,13.17-7.81,7.62-17.27,8.8-27.08,7.74-13.97-1.52-27.9-3.49-41.98-2.8-10.04.5-19.86,1.68-29.08,6.76-7.87,4.35-16.93,4.64-25.89,4.22-3.48-.16-7.09-.64-10.47.52-1.84.63-4.06,1.06-3.18,4.46.86,3.31-2.17,4.85-4.85,5.93-5.93,2.4-12.2,3.62-18.49,4.45-5.45.72-14.08-5.03-14.45-13.92-.42-9.91.11-19.73,2.35-29.5,1.15-5.02,1.21-10.25-.22-15.5-.73-2.69-1.05-6.17,1.84-8.44,3.19-2.51,3.46-4.83.58-8.08-3.36-3.8-2.09-8.51-1.07-12.91,1.84-7.87,5.49-15.13,7.57-22.96,2.73-10.27,2.38-20.7,1.7-30.98-.9-13.63,1.07-26.65,5.26-39.46.71-2.16,1.63-4.19,2.03-6.5.56-3.22,1.81-6.26,5.39-7.56.71-.26,1.38-.99,2.05-1.38,2.1-1.23,3.46-2.73,1.91-5.02-1.59-2.35-4.11-.97-5.36.07-4.76,3.95-9.74,4.56-15.61,2.99-5.06-1.35-10.73.15-15.46-3.1"/>
  <path class="st0" d="M978.36,200.9c1.24,1.81-.07,3.37-.52,4.99-1.04,3.74-1.88,7.43.52,11,1.09,1.63-.08,2.98-.45,4.51-5.07,21.03-11.59,41.65-17.64,62.4-7.98,27.36-16,54.71-24.31,81.97-8.72,28.62-17.05,57.36-25.93,85.93-4.78,15.39-9.14,30.94-13.31,46.5-1.63,6.09-4.2,8.9-9.81,9.91"/>
  <path class="st0" d="M367.76,320.28c7.46-1.49,11.77-6.34,15.13-12.92,2.67-5.23,5.02-10.62,9.17-15.23,3.9-4.33,4.69-10.65,6.16-16.32,2.23-8.59,2.57-17.45.36-25.92-2.63-10.08-19.08-21.77-32.81-19.52-6.81,1.11-12.77,4.04-17.98,8.5-1.51,1.29-2.68,3.19-5,2.95-1.34-.14-1.95.79-2.47,1.56-4.98,7.34-11.18,13.62-15.26,21.84-11.87,23.91-23.26,48.02-33.62,72.6-5.03,11.92-9.62,24.11-12.05,36.92-.46,2.41-.52,5.09.02,7.46,1.49,6.5,9.31,9.24,15.39,5.49,4.48-2.77,8.83-5.75,13.01-8.96,4.75-3.65,9.72-2.87,11.27,2.56,1,3.51,3.38,4.66,5.75,5.3,10.69,2.9,21.54,5.15,32.44,7.14,16.86,3.08,33.96,3.3,50.97,3.26,11.14-.03,22.35-.82,33.49-2.15,6.99-.83,14.09-2.02,21.08,1.66,3.01,1.59,7.36-.68,10.88,1.21"/>
  <path class="st0" d="M459.7,141.46c4.82,1.44,12.48-3.6,13.01-8.49.18-1.67-.72-2.81-2.03-2.93-9.49-.86-17.5-6.19-26.48-8.55-15.14-3.99-30.21-5.86-44.97,1.5-10.99,5.48-16.53,14.75-19.05,26.46-3.09,14.32,2.33,26.86,7.61,39.45,1.64,3.92,1.77,8.83,6.45,11.01"/>
  <path class="st0" d="M968.37,283.32c13.12,3.61,26.25,7.14,38,14.45,6.6,4.11,9.24,9.92,9.55,17.52.47,11.42-2.18,22.42-4.23,33.44-2.99,16.04-7.02,31.89-9.99,47.95-1.16,6.28-.84,12.06,1.05,18.04.71,2.25-.16,4.8-1.96,6.41-3.03,2.71-5.66,5.77-9.9,7.18-6.46,2.14-12.9,4.32-19.54,5.83-5.48,1.25-9.02,6.19-7.42,11.49,2.29,7.63.39,15.05-.64,22.49-.97,6.97.92,13.48,2.73,19.95.76,2.71,4.85,2.72,6.74,4.64,2.37,2.41,4.34.84,6.6.44,3.46-.61,6.7-1.85,10-2.99,3.53-1.21,6.55-2.46,6.56-7.04,0-2.15,1.61-3.17,3.9-3.57,3.99-.69,7.97-1.13,12-.91,12.3.66,22.85-3.91,32.44-11.06,2.85-2.13,6.55-3.48,8.44-6.5,3.31-5.27,2.53-9.26.15-12.47-3.01-4.04-7.43-3.59-10.98-2.69-3.32.85-6.79,1.65-10.12,2.51-3.48.9-7.44.61-10.95-1.27-3.5-1.88-7.31-3.29-11.04-4.31-4.39-1.21-6.57-3.1-7.04-7.68-.4-3.87-2.75-6.8-6.4-8.5"/>
  <path class="st0" d="M1075.8,156.44c1.87,1.6,1.84,3.89,1.93,6,.08,1.77.21,3.59,1.12,4.95,4.38,6.55,4.29,14.29,5.86,21.53,5.05,23.3,10.2,46.58,15.12,69.9,3.7,17.51,7.63,34.97,11.37,52.48.26,1.2.99,1.7,1.57,2.48"/>
  <path class="st0" d="M341.28,241.86c-.89-5.02,3.64-7.34,5.56-10.96.69-1.31,2.15-2.16,2.95-3.52,2.44-4.11,1.78-6.2-2.5-8.52-6.74-3.63-14.22-3.94-21.5-4.36-15.2-.88-29.42,2.32-41.47,12.37-9.54,7.96-14.68,18.79-18.86,30.02-2.73,7.32-5.75,14.76-5.13,22.93,1.09,14.47-1.85,28.48-4.96,42.46-.21.95-.03,1.99-.03,2.99"/>
  <path class="st0" d="M898.67,64.53c-.45,10.37-2.95,19.88-12.3,25.89-3.41,2.19-7.42,3.57-10.87,5.68-7.29,4.46-15.33,8.14-19.61,16.35-1.19,2.3-2.09,5.21-5.42,5.6-.9-2.01-.64-4.09-.46-6.06.4-4.23-2.22-5.74-5.56-5.94-27.34-1.65-44.3,7.81-55.44,33.92-2.85,6.67-4.38,13.56-4.15,20.97.18,5.61-3.55,10.32-5.42,15.46-4.83,13.27-10.23,26.34-13.9,39.99-2.56,9.51-4.07,19.2-1.48,28.95,2.51,9.47,11.42,16.4,21.44,16.93,2.18.12,4.41.23,6.47.66,5.81,1.22,10.3-1.75,15-4.11,6.93-3.48,14.41-5.65,21.04-9.9,13.39-8.57,24.94-19.22,35.9-30.57,7.53-7.8,7.84-7.84,12.02,2.02,3.63,8.56,9.78,10.76,20.5,8.57,23.3-4.74,44.99-13.68,65.86-24.71,4.01-2.12,8.17-.52,12.18-2.65,6.26-3.34,6.29-2.8,5.97-9.69-.32-7.01,1.63-13.78,3.49-20.46,1.88-6.78,5.76-13.07,4.91-20.49-.11-.95.37-1.72.61-2.48,1.37-4.27,4.86-6.59,7.92-5.52,2.73.95,3.67,4.2,2.5,8.49-1.04,3.87-3.28,7.37-3.5,11.41,4.88,5.8,10.63,4.03,16.49,2.09,12.88-4.26,25.26-9.58,37.01-16.43,4.3-2.51,6.82-5.74,8.05-10.54,1.08-4.25,2.09-8.69,5.4-12.01,3.45-3.46,6.54-3.89,10.99-1.5"/>
  <path class="st0" d="M460.7,710.4c-5.15,4.23-11.83,5.23-17.55,8.38-12.71,7-22.87,16.34-29.97,29.06-2.25,4.03-4.32,8.31-7.09,11.91-4.51,5.87-10.51,9.44-18.3,10.81-11.94,2.1-23.6,5.76-34.49,11.33-4.93,2.52-10.41,1.82-15.58,3.19-11.2,2.97-20.32,8.88-28.95,16.2-10.83,9.19-20.77,19.47-32.94,27.02-6.12,3.8-12.75,6.06-19.99,5.96-9.66-.13-19.4-.62-28.96-.11-8.64.47-17.35.8-26,1.64"/>
  <path class="st0" d="M978.36,166.43c-6.48-4.97-13.35-9.8-18.71-15.74-5.59-6.2-10.51-13.32-14.82-20.7-3.4-5.83-8.28-10.34-13.91-14.06-.67-.45-1.47-1.38-2.03-1.35-1.41.08-3.12-1.5-4.18.19-.64,1.03-.42,2.37.12,3.72,3.06,7.68,4.09,15.82,5.02,23.96.53,4.62,1.45,9.24,3.2,13.41,1.97,4.71,2.91,8.99.31,13.54-1.1,1.92-.13,4-.88,6.04-1.53,4.12-3.13,8.08-6.02,11.51-1.26,1.49-3.37,2.86-2.56,5.44"/>
  <path class="st0" d="M973.37,494.61c-12.65,6.42-26.1,11.52-36.92,21.05-6.4,5.64-10.84,13.09-16.46,19.49-3.74,4.26-8.01,6.58-13.57,6.4-10.72-.35-21.43.14-31.44,4.12-13.81,5.49-24.07,15.44-32.03,27.86-2.82,4.4-5.39,8.98-8.15,13.39-2.58,4.12-5.55,8.04-9.69,11.27-8.92,6.94-16.91,15.05-25.62,22.3-4.46,3.71-9.15,7.17-14.51,9.43-2.98,1.25-6.31,2.44-8.97-.93"/>
  <path class="st0" d="M850.45,118.48c-1.84,3.7-3.42,7.49-4.5,11.49-2,7.36-7.32,13.06-9.67,20.42-5.95,18.66-13.92,36.62-19.41,55.47-1.21,4.15-2.33,8.28-2.83,12.53-.41,3.45-.47,7.1,3.44,8.97,3.61,1.72,6.79-.44,9.41-2.09,14.99-9.45,27.3-21.86,37.99-35.89,1.74-2.28,1.21-5.15.61-7.96-2.22-10.44-3.9-21-6.17-31.43-.29-1.35.76-2.36.12-3.52"/>
  <path class="st0" d="M428.72,241.86c2.31,2.51,5.08,4.61,7.05,7.55-2.08,4.99,1.22,9.32,2.12,13.89,2.25,11.43,4.06,22.9,3.2,34.49-.98,13.15-4.42,25.88-8.27,38.5-2.27,7.45-5.96,14.53-6.58,22.45-.4,5.2,2.29,8.85,7.47,8.85,5.72,0,11.33.8,16.98,1.24,8.79.69,14.67-4.09,18.22-10.74,2.96-5.56,7.26-5.14,11.77-5.85,2.32-.37,4.79.69,7-.74"/>
  <path class="st0" d="M874.43,25.57c-10.03,3.9-13.19,12.28-14.51,21.98-1.8,13.26-4.65,26.21-15.5,35.43-13.02,11.06-27.7,14.06-43.94,8.03-1.63-.61-3.22-1.6-3.91-3.04-1.19-2.48-3.19-1.86-5.08-1.96"/>
  <path class="st0" d="M876.93,17.08c-5.26-5.87-19.36-4.84-26.97-.97-12.09,6.14-17.82,16.89-21.01,29.44-2.1,8.25-3.68,16.63-8.43,24.01-5.19,8.06-12.06,13.49-21.53,15.47-1.09.23-2.2.58-3,1.48"/>
  <path class="st0" d="M947.88,328.77c4.78,2.28,10,1.42,15,1.91,6.76.66,8.61,2.87,6.48,9.08-5.22,15.26-7.28,30.96-5.3,46.93.62,4.99.81,10.04,1.63,15.04,1.03,6.3-.9,12.7-1.98,18.92-1.53,8.8-2.03,8.71,4.66,13.02"/>
  <path class="st0" d="M1074.3,155.94c-2.57,3.67-5.79,5.55-10.41,6.8-6.94,1.88-12.21,7.49-18.06,11.7-13.09,9.42-26.57,18.22-41.54,24.33-4.67,1.91-9.94,4.6-14.94.12"/>
  <path class="st0" d="M949.88,26.07c5.83-5.18,5.65-6.51-.47-11.02-8.64-6.37-17.53-11.99-28.5-13.48-13.6-1.86-25.6.62-34.44,12.05-1.76,2.27-3.16,4.26-6.56,3.05-1.63-.58-2.19,1.24-3.01,2.39-1.19,1.69-1.26,3.7-2.31,5.74,3.43,2.09,4.29,4.4,3.63,8.82-1.92,13.02,1.7,24.79,11.16,34.47,2.33,2.38,4.9,3.2,8.04,2.96"/>
  <path class="st0" d="M436.22,249.85c5.5,2.48,8.04,7.58,10.41,12.53,3.36,7.04,4.79,14.61,5.73,22.42,1.35,11.31,3.75,22.55,7.12,33.4,1.47,4.75-1.23,6.11-3.26,8.57"/>
  <path class="st0" d="M574.63,332.27c-6.98.89-12.73,3.56-16.56,9.95-3.28,5.47-9.08,6.77-14.92,7.52-12.3,1.58-24.42,4.85-36.97,3.99-1.76-.12-3.03.93-4.5,1.52"/>
  <path class="st0" d="M938.39,330.27c-12.48.7-25.01,1.01-37.47.32-9.33-.51-18.7-1.28-28.04-2.48-5.51-.71-11.37.2-16.94-1.36-8.98-2.51-18.23-4.17-25.57-10.88-4.31-3.94-8.04-8-9.91-13.58"/>
  <path class="st0" d="M572.13,359.74c-.94,1.59-.67,3.37-.44,4.99.68,4.76-2.02,7.72-8.06,8.49-.33.04-.7.1-.99,0-10.96-4.18-20.09,1.92-29.43,5.64-9.76,3.89-19.54,7.66-29.57,10.74-1.74.53-4.07,1.04-5.96-.38"/>
  <path class="st0" d="M941.89,25.07c8.69.46,11.21,2.89,11.88,12.5.19,2.76.42,5.57-.65,8.57-1,2.82-.7,6.37,1.19,9.45,1.71,2.78,3.22,5.74,4.16,8.74-.5,1.75-1.88,2.32-3.11,2.65-2.71.73-3.3,2.44-3.58,5.04-.55,5.15-3.04,9.85-4.07,14.96-.67,3.31-5.08,4.98-8.82,4-15.91-4.18-11.93-2.82-18.94,10.55-2.3,4.39-1.27,8.46,2.94,11.46"/>
  <path class="st0" d="M353.27,349.75c2.56-1.84,5.16-1.34,8.01-.55,13.53,3.73,26.41,9.39,39.96,13.03,5.91,1.58,11.9,2.73,17.97,3.61,2.59.38,4.49-.47,6.51-1.6"/>
  <path class="st0" d="M497.68,634.47c3.21,2.37,5.92,4.58,5.74,9.5-.13,3.46,2.11,6.98,6.26,7.97,5.22,1.25,9.97,3.74,14.97,5.56,6.81,2.47,13.06-.56,19.49-1.61,3.36-.55,6.89-1.13,9.96-.27,6.71,1.88,9.31,10.72,4.53,16.81-3.15,4.01-7.69,6.61-10.98,10.5"/>
  <path class="st0" d="M878.43,96c1.08.81,1.92,1.88,3.49,2.04,3.5.35,5.29,2.74,7.74,5.21,7.37,7.47,9.87,16.62,10.55,26.23.64,9.12-.99,18.32-1.98,27.44-.35,3.16-3.37,5.56-6.81,6.5-1.85.51-1.28-1.22-1.75-1.99"/>
  <path class="st0" d="M320.29,385.22c-9.11,9.53-18.56,18.66-29.99,25.47-6.91,4.12-14.49,6.06-22.48,6.49-1.81.1-3.72-.3-5,1.51"/>
  <path class="st0" d="M907.41,227.37c.57,1.27.35,2.18-.39,3.55-4.03,7.44-8.04,14.88-7.21,23.93.37,3.97-2.62,7.1-4.78,10.61,4.05,3.88,9.32,3.46,13.91,4.21,11.4,1.86,22.66,4.32,33.94,6.7,3.35.71,6.89.74,10,2.45"/>
  <path class="st0" d="M319.29,319.28c-2.63,12.77-5.18,25.57-6.83,38.48-.75,5.89-1.01,12.12,1.33,17.96"/>
  <path class="st0" d="M335.78,250.85c1.17,2.27.45,4.49-.55,6.47-2.55,5.06-3.71,10.26-4.2,15.99-.5,5.83-3.6,11.29-5.2,17.02-1.52,5.46-4.19,10.64-4.3,16.47"/>
  <path class="st0" d="M402.74,423.68c4.33,5.58,11.06,5.24,16.97,7.06,12.34,3.79,24.73,7.39,37,11.43"/>
  <path class="st0" d="M462.7,142.95c-.96,3.78,1.87,6.62,2.72,9.93,1.4,5.42,2.64,10.52.87,16.07-.54,1.69-.28,3.69.85,5.5,1.61,2.59,2.87,5.38,4.51,7.99,3.35,5.32,2.97,6.7-3,8.84-2.19.78-2.49,1.8-2.46,3.62.12,6.57-2.68,12.79-2.14,19.49.25,3.11-1.93,6.16-5.35,6.35-4.29.24-8.72.87-12.98-.39-5.37-1.59-9.08.64-10.45,4.54-1.98,5.66-6.68,10-7.31,16.44-.19,1.95-2.97,4.12-4.95,5.67-6.14-1.24-10.54-4.98-14.71-8.73-5.77-5.2-11.32-10.71-16.02-16.94-1.72-2.29-2.75-5.03-3.04-7.96"/>
  <path class="st0" d="M575.63,344.26c3.78.97,7.8,4.5,11.26-1.17-4.09-4.76-3.41-9.98-1.27-15.31.67-1.67.98-3.51.93-5.24-.11-3.67-2.64-5.58-6.42-5.25-3.64.32-6.27,3.83-6,7.99.51,7.72,4.08,10.83,11.99,10.49,5.83-.25,9.11,3.83,7.45,9.48-.47,1.58-.81,3.08.07,4.49,1.17,1.88.44,3.53-.56,4.99-2.11,3.05-2.34,6.78-3.75,10.1-2.76,6.53-6.78,9.04-12.63,5.78-1.51-.84-3.28-1.55-4.57-2.88"/>
  <path class="st0" d="M580.62,372.73c-1.17,3.59.03,7.37-.97,11-1.53,5.58-3.51,10.95-3.69,16.97-.27,9-1.92,17.95-2.27,26.98-.09,2.33-.65,4.15-2.56,5.49"/>
  <path class="st0" d="M1075.3,155.44c-.17-.83.16-1.63-.46-2.53-5.78-8.36-4.74-20.18.44-28.46,1.88-3,4.79-2.68,7.51-2.41,2.51.25,4.44,1.85,4.97,4.43,1.26,6.09,3.26,12.03,2.19,18.5-.42,2.53-1.15,4.59-2.67,6.45-1.65,2.03-3.4,2.5-6.07,1.2-1.3-.64-3.5.88-5.41.82"/>
  <path class="st0" d="M1078.3,121.97c-.17-3.43,1.41-6.58,1.56-9.99.11-2.71-.67-4.89-3.09-5.91-1.77-.75-4.3-.19-5.31,1.04-1.35,1.64-3.44,3.33-2.27,6.41,1.06,2.79,1.12,5.95,1.62,8.95"/>
  <path class="st0" d="M484.69,396.21c-1.02,3.87-2.61,7.56-3.63,11.45-.6,2.3-1.77,4.6-4.27,6.18-2.12,1.33-2.17,4.51-3.01,6.87-2.07,5.8-4.2,11.59-6.08,17.45-.8,2.49-1.36,5.22-4.49,6"/>
  <path class="st0" d="M985.36,164.43c-3.21-1.62-5.18.77-6.93,2.56-3,3.07-5.49,6.59-7.62,10.39-2.35,4.2-5.74,6.67-10.9,7.72-8.61,1.74-16.65,5.59-25.5,6.96-9.65,1.49-19.34,2.12-29.02,2.63-4.52.24-8.45,2.84-12.98,2.21"/>
  <path class="st0" d="M359.77,223.38c11.81,1.21,23.91,1.39,33.03,10.94,2.32,2.43,3.1,4.91,2.45,8.04"/>
  <path class="st0" d="M350.77,314.29c5.65.46,10.68,2.89,15.41,5.62,2.86,1.65,3.29,5.29,2.5,8.34-1.87,7.22-6.15,13.39-9.42,20"/>
  <path class="st0" d="M354.77,755.36c-2.56,7.14-4.44,14.51-7.48,21.48-.76,1.75-.47,3.65-.51,5.49"/>
  <path class="st0" d="M826.21,226.87c2.02,3.37.05,6.09-1.81,8.44-3.81,4.8-6.41,10.28-9.44,15.53-.59,1.03-.32,2,0,3"/>
  <path class="st0" d="M889.42,508.6c2.27,4.08,2.3,8.02.64,12.54-2.13,5.81-3.01,12.06-5.08,17.95-.24.69-.48,1.8.44,2.48"/>
  <path class="st0" d="M455.2,327.77c-.13.33-1.18.58,0,1.01,3.96,1.46,6.15,3.87,7.26,8.41,1.26,5.16,3.49,10.07,3.22,15.55,0,0-.32.03-.48,0-.18-.05-.34-.16-.5-.24"/>
  <path class="st0" d="M1002.85,167.93c-.04,8.95-2.59,17.32-6.06,25.45-.33.77-1.26,1.31-2.41,1.61-6.01,1.59-7.62,6.71-8.42,11.91-.68,4.4-2.17,8.11-5.59,10.97"/>
  <path class="st0" d="M475.69,413.69c-7.06-4.31-6.26-2.67-3.52-10.5,1.34-3.83,1.83-8.29,7.03-8.92,1.27-.16,2.6-.2,4.02.36,6.42,2.56,11.05-.31,13.65-6.85,1.27-3.19,2.7-6.52,4.48-9.46,1.35-2.22,1.84-4.21,1.85-6.6,0-1.38-.51-2.7.91-4.06,3.04-2.94,1.95-6.08-.46-8.9-.54-.63-.74-1.56-1.26-1.97-3.79-2.97-3.08-6.09-.75-9.57,1.59-2.37,3.15-5.15,1.44-7.91-1.32-2.13-3.6-4.14-6.37-3.44-2.62.65-4.76,2.28-5.6,5.36-.82,3.03.1,6.69-2.92,9.01"/>
  <path class="st0" d="M400.24,191.41c-.43,6.85-5.06,11.79-8.05,17.46-3.34,6.32-9.77,6.84-15.91,8.13-4.22.89-9.34.72-11.52,5.88"/>
  <path class="st0" d="M1130.76,387.22c1.61-2.31,4.64-2.52,6.51-4.48,2.65-2.77,1.7-7.46-2.03-7.87-4.07-.44-8.3-.42-12.02,2.29-2.26,1.65-2.58,3.53-2.52,6.06.08,3.36,3.19,2.16,4.69,3.35,1.07.85,3.28-.15,4.88.65"/>
  <path class="st0" d="M1131.01,387.71c2.12,6.9,3.17,14.07,5.25,20.98"/>
  <path class="st0" d="M359.77,742.37c2.39.81,3.93,2.74,5.45,4.53,2.13,2.51,1.06,6.12-1.95,7.46-4.26,1.88-12.78-1.55-13.86-6.02-.59-2.44-.96-5.54,3.36-6.09,2.18-.28,4.1-.59,6.01.62"/>
  <path class="st0" d="M935.89,168.43c3.81,5.46,9.36,9,14.53,12.94,1.62,1.24,2.98,2.69,4.46,4.05"/>
  <path class="st0" d="M554.64,646.96c2.77-.33,5.58-1.03,7.41-3.07,1.87-2.1,1.5-4.57-.91-6.42-1.83-1.4-9.87-2.26-11.45-.95-1.31,1.09-2.74,2.11-2.66,4.45.1,2.7,2.21,3.29,3.69,4.38.82.6,2.5-.1,3.42,1.11"/>
  <path class="st0" d="M865.94,189.41c3.37,5.34,3.02,11.74,5,17.48"/>
  <path class="st0" d="M895.92,503.6c.3.63,1.03.69,1.53.95,2.93,1.49,5.62,3.49,4.35,7-1.43,3.95-5.05,3.37-8.37,2.55-.31-.08-.66-.01-1-.01"/>
</svg>