<?xml version="1.0" encoding="UTF-8"?>
<svg id="Layer_1" xmlns="http://www.w3.org/2000/svg" version="1.1" viewBox="0 0 1345.13 535.23">
  <!-- Generator: Adobe Illustrator 29.8.10, SVG Export Plug-In . SVG Version: 2.1.1 Build 2)  -->
  <defs>
    <style>
      .st0 {
        fill: none;
        stroke: #000;
        stroke-linecap: round;
        stroke-linejoin: round;
        stroke-width: 2px;
      }
    </style>
  </defs>
  <path class="st0" d="M320.79,490.27c2.82-9.55,6.09-18.95,9.08-28.44,2.49-7.89,7.14-14.77,11.9-21.51,4.97-7.04,7.13-15.12,8.5-23.47,1.77-10.75.94-21.73,2.92-32.48.83-4.48,2.44-8.56,4.6-12.46,4.11-7.42,4.43-15.33,3.49-23.49-1.31-11.52-2.43-23.14,1.08-34.43,1.97-6.33,4.92-12.3,5.98-19,1.56-9.79,1.79-19.5-1.2-28.95-2.02-6.38-1.59-12.66-.86-19.01,1.04-9.01,1.26-18.25,3.69-26.91,2.97-10.57-4.04-18.1-6.4-26.99-.95-3.56-2.91-7.03-4.21-10.58-1.5-4.1-3.93-4.38-7.62-3.55-2.84.64-5.9,1.07-8.4,2.24-5.12,2.4-8.96.18-13.07-2.14-6.06-3.42-11.93-7.23-19.48-6.59-4.41.37-8.57,1.34-11.42,4.64-6.69,7.75-15.07,11.77-25.03,13.57-4.99.9-9.05,4.09-11.53,8.85-2.18,4.19-5.37,7.83-7.38,12.04-4.26,8.89-11.77,13.17-20.59,15.93-6.68,2.09-10.82,6.23-13.66,12.92-6.86,16.16-16.18,31.09-25.44,45.95-4.65,7.46-12.98,10.38-20.83,13.62-7.8,3.23-14.24,7.78-19.29,15.24-5.39,7.95-10.94,16-18.09,22.79-5.13,4.87-11.04,7.51-17.62,8.24-11.34,1.26-19.97,6.14-26.55,15.56-9.1,13.03-19.55,24.85-32.29,34.66-6.78,5.22-12.18,12.11-17.64,18.8-4.93,6.05-10.43,11.57-16.93,16.04-9.02,6.21-16.32,14.07-22.05,23.42-.97,1.59-2.66,2.74-3.44,4.53"/>
  <path class="st0" d="M554.64,492.27c-7.8-9.28-15.26-18.7-18.08-30.95-.77-3.36-1.71-6.73-2.88-10.02-3.49-9.86-8.4-18.51-17.48-24.53-13.5-8.95-22.54-21.77-30.12-35.85-2.79-5.17-5.86-10.24-9.29-15.11-6.27-8.92-14.76-14.39-25.12-16.27-15.78-2.86-23.78-13.02-29.06-27.08-7.67-20.43-14.57-41.1-20.97-61.95-1.8-5.88-3.81-11.72-5.88-17.52-1.22-3.42-2.97-6.46-5.55-8.96-4.07-3.94-7-8.34-8.64-13.96-1.7-5.81-5.07-10.99-9.83-15.03"/>
  <path class="st0" d="M618.6,111.64c3.62,14.05,8.72,16.53,20.07,25.88,7.32,6.03,9.99,14.11,12.42,22.58,3.11,10.83,7.67,21.1,11.81,31.54,3.01,7.58,7.2,14.54,12,20.65,4.67,5.95,9.97,12.91,17.72,15.01,9.36,2.54,14.35,8.43,17.99,16.69,4.14,9.39,11.25,15.47,21.4,18.08,6.9,1.77,11.66,6.21,14.57,12.89,3.2,7.34,8.12,13.82,13.22,19.75,3.08,3.58,9.21,4.37,14.21,5.71,6.17,1.65,11.44,5.16,16.9,8.17,2.83,1.56,3.54,5.25,4.6,8.34,3.2,9.28,8.93,17.2,13.98,25.48,2.55,4.18,4.93,8.31,9.4,11.13,4.65,2.94,6.01,8.54,8.03,13.37,2.45,5.87,5.88,11.22,8.58,16.94,1.55,3.27,4.09,6.15,7.03,7.88,9.95,5.87,15.84,15.01,21.45,24.58,5.37,9.17,12.13,16.52,23.43,18.59,12.81,2.34,21.04,10.91,28.11,21.31,6.21,9.13,13.14,17.78,19.9,26.53,5.05,6.54,11.73,11.94,19.08,14.69,15.55,5.83,26.78,16.87,38.39,27.76,3.18,2.98,5.84,6.51,9.47,9.02"/>
  <path class="st0" d="M618.6,111.64c-5.09,3.32-6.82,8.87-8.91,14.02-2.92,7.16-4.45,14.83-10.48,20.55-3.31,3.13-3.41,8.02-4.08,12.39-1.86,12.11-4.08,24.1-8.94,35.49-2.67,6.24-7.82,10.62-11.25,16.34-5.18,8.65-7.06,17.86-7.81,27.59-.71,9.19-.76,18.43-2.93,27.49-1.77,7.39-6.43,13.29-9.58,19.95-2.04,4.3-2.86,8.79-3.63,13.47-1.79,10.95.08,22.21-3.28,33.01-1.48,4.78-3.27,9.27-6.01,13.5-6.62,10.2-8.99,22.06-12.49,33.45-.86,2.82-2.02,5.56-2.55,8.47"/>
  <path class="st0" d="M663.07,198.56c-5.01,10.81-7.33,22.37-9.42,33.98-.44,2.45-.99,4.83-2.12,6.96-5.28,9.88-6.9,20.41-6.52,31.49.27,7.88-1.49,15.42-6.97,21.44-5.35,5.88-6.9,13.3-7.73,20.54-.93,8.17-2.73,16.07-4.8,23.93-2.14,8.09-4.99,16.14-11.96,21.43-10.38,7.88-14.4,19.01-16.93,31.04-2.31,10.99-5.78,21.35-13.44,30.02-5.4,6.11-7.69,13.95-10.58,21.42-2.26,5.85-4.24,11.82-6.97,17.49"/>
  <path class="st0" d="M999.85,222.04c-2.05,7.16-1.16,14.37.08,21.47,1.25,7.22,5.71,13.44,7.29,20.52,1.34,6,2.34,12.06,1.8,18.47-1.11,13.29.83,26.17,8.83,37.44,6.83,9.63,9.31,20.43,7.91,31.96-1.54,12.68,1.82,24.28,5.97,36.01,4.85,13.71,5.37,27.59-.32,41.45-3.92,9.56-5.03,19.88-7.06,29.94"/>
  <path class="st0" d="M759.01,295.46c-5.54,5.16-9.3,11.49-11.96,18.49-1.43,3.77-3.59,7-7.06,8.92-8.01,4.43-11.43,11.76-14.04,20.01-3.11,9.83-6,19.75-11.81,28.56-3.64,5.52-8.82,9.26-13.67,13.33-6.4,5.38-9.66,12.19-11.43,20.07-2.59,11.5-6.5,22.58-10.97,33.47-4.88,11.87-14.05,20.14-24.06,27.37-8.45,6.1-15.27,13.55-19.75,22.66-6.07,12.35-14.55,22.39-25.12,30.92-.61.5-1.54.92-1.52,1.97"/>
  <path class="st0" d="M402.24,158.1c-1.5,2.76.48,5.05,1.62,6.92,4.46,7.33,6.89,15.37,8.73,23.58.54,2.42,1.03,4.85,2.7,6.39,6.22,5.72,6.94,13.58,9.03,21.02,1.41,5.01,1.47,10.33,4.24,15.11,1.62,2.79,3.35,5.29,5.68,7.38,7.4,6.63,12.06,14.85,13.91,24.51,2,10.48,5.33,20.15,13.02,27.99,7.42,7.57,8.76,17.72,9.85,27.46,1.54,13.79,5.78,26.56,11.67,38.94"/>
  <path class="st0" d="M221.86,286.47c-8.03,10.62-15.33,21.74-22.48,32.97-2.65,4.16-5.82,7.9-10.03,10.43-8.74,5.26-13.28,13.47-17,22.51-5.34,12.96-12.05,25.16-20.26,36.61-2.47,3.44-5.49,6.05-8.77,7.67-8.07,3.99-14.04,10.03-18.78,17.26-3.95,6.02-8.25,11.37-14.6,14.92-11.45,6.4-18.31,17.35-26.39,27.05-.87,1.05-2.46,1.75-2.6,3.41"/>
  <path class="st0" d="M1344.13,459.3c-7.07-5.72-13.43-12.24-19.86-18.61-6.83-6.76-14.58-11.73-23.1-15.89-17.04-8.33-30.86-20.59-42.48-35.44-5.44-6.95-10.16-14.27-18.88-18.23-5.2-2.36-8.7-7.8-12.64-12.21-5.64-6.31-10.72-13.54-19.96-14.97-5.45-.85-10.94-1.87-16.48-1.48-5.85.41-10.99-1.51-15.97-4.1-2.1-1.09-3.96-2.65-6.52-2.45"/>
  <path class="st0" d="M331.78,207.55c-2.32,7.06-4.72,14.08-9.49,19.98-3.41,4.22-4.34,9.51-4.81,14.5-.66,7.16-1.89,14.26-2.24,21.46-.28,5.8-2.63,11.06-5.51,15.96-4.57,7.78-5.56,16.2-6.08,25-.57,9.55.15,18.99.61,28.48.35,7.06-.78,13.97-3.56,20.44-1.61,3.75-2.16,7.79-2.19,11.53-.07,7.5-2.35,14.09-5.8,20.44-.54,1-.98,2.01-1.42,3.04"/>
  <path class="st0" d="M897.92,199.81c1.27-.45,1.88-.48,2.6,1.2,2.21,5.16,3.73,10.47,3.77,16.03.02,2.17.47,4.45,1.29,5.89,3.35,5.85,4.65,11.9,4.47,18.59-.07,2.47,1.32,5.08,2.4,7.47,2.1,4.65,1.41,9.71,2.42,14.51.83,3.96,1.13,8.06,2.14,11.95,1.03,3.94,3.69,7.32,5.59,10.91,2.83,5.33,3.82,10.99,4.58,16.62.6,4.44,1.85,8.3,4.75,11.41,4.8,5.15,5.94,11.65,6.83,18.05,1.59,11.41,5.13,21.63,14.07,29.48,5.36,4.71,6.7,11.33,8.06,17.95,1.39,6.79,1.06,13.87,3.45,20.49,1.88,5.21,5.64,9.58,6.95,14.99,1.99,8.2,3.99,16.43,4.05,24.96"/>
  <path class="st0" d="M718.28,12.24c1.21,3.8-1.2,7.08-2,10.43-1.68,7.01-2.78,14.18-5.06,21.1-1.09,3.31-.67,7.3-.58,10.92.24,9.37-2.69,17.63-8.16,24.94-5.83,7.78-8.38,16.4-8.49,26.02-.08,7.01.51,13.98.61,20.98.08,5.74-.96,11.1-2.94,16.53-3.24,8.88-4.85,18.26-7.11,27.43"/>
  <path class="st0" d="M554.64,42.71c1.06,1.22.81,2.9.41,3.96-3.56,9.42-3.68,19.99-9.8,28.58-1.24,1.73-2.17,3.73-3.57,5.45-3.88,4.77-5.45,10.28-5.6,16.46-.25,10.19-.57,20.3.91,30.5,1.14,7.87.4,15.96-2.87,23.44-3.82,8.73-2.99,17.36.07,25.98,2.17,6.11,2.34,12.02,1.26,18.54-1.03,6.18.8,12.72,2.29,18.91,1.91,7.92,2.85,15.97,3.86,24,.86,6.86-.45,13.6-3,19.95-3.89,9.67-4.61,20-6.93,30"/>
  <path class="st0" d="M621.1,110.64c3.8-5.05,4.04-11.13,4.38-16.99.32-5.47,1.5-10.68,4.73-14.89,3.77-4.91,4.37-10.55,4.72-16.09.46-7.24,2.51-14.26,4.68-20.79,1.59-4.78,7.99-8.91,13.97-8.95,8.72-.05,15.1-4.7,21.99-8.69,6.26-3.63,12.39-8.42,19.97-7.85,9.68.73,17.39-3.31,25.63-7.38,5.41-2.67,11.12-5.11,16.79-7.41,3.47-1.41,5.49-.24,6.99,2.18,4.03,6.53,9.1,13.1,10.18,20.49,1.21,8.31,3.83,16.44,3.88,24.92.05,7.86.76,15.63,6.05,21.93,3.74,4.45,2.16,9.71,2.79,14.55.93,7.1,2.06,13.89,7.66,18.94,3.48,3.13,3.99,7.58,4.29,11.52.8,10.46,4.05,20.33,6.02,30.49,2.05,10.52,7.04,19.92,10.61,29.77,2.67,7.35,5.79,14.71,8.62,22.11,1.39,3.64,2.04,7.24,1.88,11.02-.6,14.04.43,27.73,5.86,41.02,2.87,7.02,1.24,14.66-.39,21.91-2.29,10.23-3.82,20.57-4.96,30.98"/>
  <path class="st0" d="M897.92,200.56c-6.45,8.77-8.57,19.11-10.45,29.48-1.76,9.7-2.57,19.53-10.42,27.08-4.22,4.06-5.12,10.1-5.59,15.87-.52,6.51-1.42,13.14-6.13,17.87-5.56,5.58-7.41,12.28-8.39,19.59-.52,3.86-1.58,7.53-3.46,11.01-3.48,6.43-5.71,13.45-9.03,19.96"/>
  <path class="st0" d="M915.9,277.48c-5.58,9.67-9.18,20.13-11.39,30.99-1.44,7.06-3.63,13.25-8.96,18.59-5.8,5.82-6.17,14.24-7.52,21.87-1.65,9.32-4.58,17.65-11.51,24.55-4.53,4.52-5.86,11.01-8.14,16.87-2.18,5.62-3.68,11.59-7.45,16.5"/>
  <path class="st0" d="M296.81,237.52c-5.91,9.08-11.19,18.51-15.49,28.47-2.38,5.51-6.08,10.04-11.54,12.39-8.19,3.53-12.14,10.1-14.42,18.09-1.84,6.45-4.52,12.4-9,17.49-3.24,3.68-3.8,8.36-3.96,12.97-.22,6.49-.21,12.99,0,19.48.16,4.93-.58,9.87-1.82,14.41-1.17,4.3-3.1,9.08-5.93,12.39-6.71,7.84-9.92,17.42-14.74,26.17-.29.53-.33,1.02-1.04.97"/>
  <path class="st0" d="M675.56,215.04c-.51,1.8-1.28,3.34-.61,5.53,1.8,5.86,1.22,11.91.67,17.95-.54,5.96,1.11,11.76,2.53,17.46,2.14,8.58.91,16.7-2.66,24.47-3.42,7.45-4.63,14.8-3.14,23.05,1.12,6.18.19,12.79-1.49,18.89-.92,3.34-.41,6.98-2.3,10.04"/>
  <path class="st0" d="M1044.82,269.49c6.16,1.39,12.73,2.22,18.39-.24,7.22-3.14,14.88-4.71,22.15-7.6,7.93-3.16,13.65-1.04,17.39,3.87,3.46,4.53,8.49,7.73,10.63,13.42.99,2.64,4.47,2.88,6.49,4.94,7.98,8.15,15.7,16.52,26.29,21.77,5.5,2.73,7.53,9.42,10.93,14.39,3.25,4.75,5.9,9.94,9.7,14.34.43.5.89.9.95,1.54,1,12.17,6.52,23.18,8.9,34.99.53,2.64,2.19,4.67,3.72,5.82,11.83,8.89,16.61,21.74,20.27,35.15,1.57,5.76,4.34,10.44,8.58,14.47,6.57,6.25,11.85,13.56,17,20.97"/>
  <path class="st0" d="M638.58,41.21c-3.23-.57-6.21-1.95-8.94-3.58-3.75-2.24-7.1-2.42-11.08-.5-4.97,2.39-9.95,4.89-16.02,2.79-1.95-.67-3.51-1.63-4.87-2.77-5.01-4.23-10.02-5.64-16.1-2.02-3.11,1.85-6.76,1.97-10.45,1.13-6.19-1.4-11.11.03-16.23,4.67-4.48,4.05-9.35,8.13-14.71,11.31-1.37.81-2.69.27-4.02.45-9.94,1.36-15.37,7.91-18.96,16.51-1.39,3.33-3.35,6.32-5.06,9.46-2,3.69-4.65,6.82-8.96,8.01-9.76,2.71-14.5,10.02-17.5,18.98-2.46,7.35-6.13,14.1-10.5,20.47-1,1.46-1.91,2.76-.54,4.55.33.43.82,1.14.57,1.96-3.44,11.23-3.41,22.94-4.78,34.46-.24,1.99-1.02,3.71-2.05,5.59-6.63,12.22-11.88,25.09-10.01,39.34.99,7.57,1.18,14.97.44,22.51-.12,1.23-.95,1.92-1.1,2.99"/>
  <path class="st0" d="M680.56,22.23c2.58,2.16.49,4.69-.16,6.43-3.13,8.27-4.92,16.72-4.79,25.54.05,3.77-.56,7.25-2.53,10.5-3.91,6.45-5.58,13.62-4.9,20.96,1.32,14.23-4.68,26.81-8.2,39.94-.28,1.06-.15,2.04-.4,3.02"/>
  <path class="st0" d="M288.81,388.37c-1.1,4.95-4.62,8.89-5.57,13.97-1.43,7.62-2.32,15.35-2.73,23-.64,12.19-3.66,23.6-9.84,33.87-6.14,10.21-9.42,21.27-12.29,32.57-.47,1.85-1.42,3.55-1.56,5.48"/>
  <path class="st0" d="M952.38,177.08c3.85-.73,6.74,1.84,9.95,3.11,2.18.86,4.22,1.42,6.54,1.41,9.89-.05,14.91,3.33,18.48,12.47,3.37,8.62,6.18,17.71,11.33,25.25,3.29,4.82,8.27,9.33,14.65,11.26,6.71,2.03,13.61,4.33,16.93,11.22,4.23,8.79,8.53,17.55,12.85,26.3,1.56,3.16.69,7.56,1.21,11.38,1.19,8.68.6,17.38-.59,25.96-1.32,9.53,1.53,17.97,5.02,26.52,3,7.34,3.21,15.11,2.1,22.95-1.02,7.14-1.72,14.31-2.52,21.48"/>
  <path class="st0" d="M800.98,332.43c-3.47,6.39-3.23,13.68-4.98,20.48-1.39,5.41-1.07,10.97-.99,16.48.07,5-.97,9.78-3.58,13.95-7.04,11.26-7.05,23.1-4.03,35.52,1.54,6.36,2.55,12.89,3.09,19.46"/>
  <path class="st0" d="M1114.28,280.98c-1.91,5.39,1.77,10.2,1.75,15.49,0,2.15.48,4.65.77,6.99.54,4.24,1.02,8.44,3.93,12.02,6.25,7.67,8.79,16.8,10.09,26.43.66,4.88,1.82,9.53,5.35,13.58,5.85,6.7,9.15,15.01,13.09,22.9"/>
  <path class="st0" d="M785.99,153.1c-6.15,7.82-9.25,16.97-11.48,26.48-.85,3.62-1.56,7.28-2.19,10.96-.79,4.6-4.48,8-7.42,11.43-4.92,5.73-6.38,12.5-7.4,19.56-.94,6.42-2.59,12.62-5.46,18.5-1.48,3.03-2.87,6.13-3.53,9.47"/>
  <path class="st0" d="M857.94,132.12c3.02,1.35,5.38,3.58,7.45,6.03,2.39,2.82,4.75,2.49,8.08,1.63,5.46-1.4,9.26-5.06,13.38-8.25,3.57-2.75,7.03-3.64,11.57-3.08,5.49.69,11.05.03,16.5-1.75,6.07-1.98,10.52-.11,13.9,5.44,1.61,2.65,2.89,5.6,4.3,8.33,3.17,6.15,4.84,13.36,11.21,17.68,4.03,2.73,2.62,8.21,5.02,11.93,3.56,5.51,1.77,11.3.49,16.96-1.41,6.27-3.34,12.46-2.94,18.99.45,7.47-1.45,14.34-5.58,20.44-4.16,6.13-5.39,12.85-5.45,20.02-.08,9.45-.57,18.87-3.48,27.97"/>
  <path class="st0" d="M241.34,362.4c3.94,7.89,8.08,15.66,7.56,24.98-.37,6.53.95,12.85,3.38,19,2.72,6.9,3.01,14.19,2.01,21.45-1.32,9.62-.57,19.07,1.54,28.48"/>
  <path class="st0" d="M922.4,127.63c-3.61,8.21-8.08,16.09-9.98,24.98-.52,2.46-2.42,3.86-4.02,5.49-5.32,5.42-7.74,11.76-8.19,19.48-.42,7.17-.76,14.32-.8,21.49"/>
  <path class="st0" d="M857.44,130.62c-4.46,3.7-9.86,3.43-12.41-1.05-1.64-2.88-3.49-5.14-6.57-6.48-3.23-1.41-4.03-5.01-5.84-7.58-1.8-2.55-3.67-4.98-5.61-7.42-2.85-3.58-6.81-4.13-10.51-3.27-3.9.9-7.7.57-11.53.82"/>
  <path class="st0" d="M756.51,25.73c2.26.18,3.22,1.95,4.55,3.45,2.42,2.73,4.94,5.4,7.94,7.55,4.83,3.47,7.96,7.8,9.18,13.94.99,5.02,2.32,10.07,3.85,15.01,1.49,4.82,5.51,7.8,9.05,10.9,3.24,2.84,5.54,5.71,6.53,10.06,1.26,5.53,2.61,11.11,5.72,16.1.79,1.26.95,3.37.84,5.41-.46,8.63.5,17.38-.36,25.95-1.37,13.64-1.73,27.31-2.3,40.98-.06,1.45-.5,2.56-1.53,3.5"/>
  <path class="st0" d="M473.19,129.13c-3.34.59-5.59,2.97-7.96,5.03-3.37,2.93-6.66,5.23-11.51,5.65-4.74.41-8.43,3.4-11.1,7.74-2.28,3.69-5.14,6.93-8.77,9.71-4.58,3.51-9.31,3.77-14.07,2.19-4.83-1.61-9.62-1.83-14.54-1.85-.33,0-.74.12-.99-.02-8.36-4.71-14.06,1.94-19.29,5.8-8.4,6.19-17.96,10.38-26.19,16.7"/>
  <path class="st0" d="M782.49,69.18c-3.18,4.06-1.4,9.05-2.19,13.54-1.14,6.45-1.3,13.25-.81,19.93"/>
  <path class="st0" d="M471.19,171.09c2.21,1.37,1.68,3.62,1.44,5.49-.92,7.06-2.79,13.96-3.93,20.99"/>
  <path class="st0" d="M533.15,200.06c-4.18,6.19-4.75,13.52-6.5,20.48"/>
</svg>