<svg viewBox="0 0 820 820" xmlns="http://www.w3.org/2000/svg">
<rect width="820" height="820" fill="#0b0f14"/>
<line x1="410.0" y1="260.0" x2="410.0" y2="14.0" stroke="#1e293b" stroke-width="1"/>
<text x="517.2" y="10.1" fill="#475569" font-family="system-ui" font-size="13" text-anchor="middle">Jan</text>
<line x1="486.3" y1="280.9" x2="611.4" y2="69.1" stroke="#1e293b" stroke-width="1"/>
<text x="705.7" y="120.2" fill="#475569" font-family="system-ui" font-size="13" text-anchor="middle">Feb</text>
<line x1="537.5" y1="330.9" x2="746.5" y2="201.3" stroke="#1e293b" stroke-width="1"/>
<text x="806.3" y="290.3" fill="#475569" font-family="system-ui" font-size="13" text-anchor="middle">Mar</text>
<line x1="560.0" y1="406.8" x2="805.9" y2="401.5" stroke="#1e293b" stroke-width="1"/>
<text x="812.1" y="508.5" fill="#475569" font-family="system-ui" font-size="13" text-anchor="middle">Apr</text>
<line x1="542.0" y1="481.2" x2="758.5" y2="598.1" stroke="#1e293b" stroke-width="1"/>
<text x="711.0" y="694.2" fill="#475569" font-family="system-ui" font-size="13" text-anchor="middle">May</text>
<line x1="487.4" y1="538.5" x2="614.4" y2="749.2" stroke="#1e293b" stroke-width="1"/>
<text x="524.6" y="807.8" fill="#475569" font-family="system-ui" font-size="13" text-anchor="middle">Jun</text>
<line x1="413.9" y1="559.9" x2="420.2" y2="805.9" stroke="#1e293b" stroke-width="1"/>
<text x="313.2" y="812.5" fill="#475569" font-family="system-ui" font-size="13" text-anchor="middle">Jul</text>
<line x1="337.1" y1="541.1" x2="217.4" y2="756.0" stroke="#1e293b" stroke-width="1"/>
<text x="121.9" y="707.3" fill="#475569" font-family="system-ui" font-size="13" text-anchor="middle">Aug</text>
<line x1="280.5" y1="485.7" x2="68.2" y2="610.0" stroke="#1e293b" stroke-width="1"/>
<text x="10.7" y="519.4" fill="#475569" font-family="system-ui" font-size="13" text-anchor="middle">Sep</text>
<line x1="260.0" y1="411.9" x2="14.0" y2="415.1" stroke="#1e293b" stroke-width="1"/>
<text x="8.8" y="308.0" fill="#475569" font-family="system-ui" font-size="13" text-anchor="middle">Oct</text>
<line x1="279.9" y1="335.4" x2="66.5" y2="213.0" stroke="#1e293b" stroke-width="1"/>
<text x="116.4" y="118.1" fill="#475569" font-family="system-ui" font-size="13" text-anchor="middle">Nov</text>
<line x1="333.7" y1="280.9" x2="208.6" y2="69.1" stroke="#1e293b" stroke-width="1"/>
<text x="298.8" y="11.2" fill="#475569" font-family="system-ui" font-size="13" text-anchor="middle">Dec</text>
<circle cx="410.0" cy="410.0" r="150" fill="none" stroke="#1e293b"/>
<line x1="410.0" y1="260.0" x2="410.0" y2="214.7" stroke="#a3e635" stroke-width="1.8" stroke-linecap="round" opacity="0.85"/>
<line x1="412.6" y1="260.0" x2="414.1" y2="171.1" stroke="#2dd4bf" stroke-width="1.7" stroke-linecap="round" opacity="0.85"/>
<line x1="415.2" y1="260.1" x2="415.2" y2="260.1" stroke="#f472b6" stroke-width="2.0" stroke-linecap="round" opacity="0.85"/>
<line x1="420.3" y1="260.4" x2="428.7" y2="138.9" stroke="#2dd4bf" stroke-width="2.2" stroke-linecap="round" opacity="0.85"/>
<line x1="425.5" y1="260.8" x2="432.1" y2="196.7" stroke="#2dd4bf" stroke-width="1.5" stroke-linecap="round" opacity="0.85"/>
<line x1="425.5" y1="260.8" x2="431.4" y2="203.1" stroke="#60a5fa" stroke-width="1.5" stroke-linecap="round" opacity="0.85"/>
<line x1="430.6" y1="261.4" x2="444.0" y2="164.8" stroke="#2dd4bf" stroke-width="1.8" stroke-linecap="round" opacity="0.85"/>
<line x1="435.7" y1="262.2" x2="458.2" y2="132.6" stroke="#2dd4bf" stroke-width="2.3" stroke-linecap="round" opacity="0.85"/>
<line x1="440.8" y1="263.2" x2="458.2" y2="180.0" stroke="#2dd4bf" stroke-width="1.6" stroke-linecap="round" opacity="0.85"/>
<line x1="443.3" y1="263.7" x2="459.8" y2="191.3" stroke="#60a5fa" stroke-width="1.6" stroke-linecap="round" opacity="0.85"/>
<line x1="445.8" y1="264.3" x2="466.8" y2="178.7" stroke="#2dd4bf" stroke-width="1.7" stroke-linecap="round" opacity="0.85"/>
<line x1="450.8" y1="265.7" x2="475.5" y2="178.1" stroke="#2dd4bf" stroke-width="1.7" stroke-linecap="round" opacity="0.85"/>
<line x1="455.7" y1="267.1" x2="487.3" y2="168.7" stroke="#2dd4bf" stroke-width="2.0" stroke-linecap="round" opacity="0.85"/>
<line x1="458.2" y1="268.0" x2="475.0" y2="218.4" stroke="#60a5fa" stroke-width="1.6" stroke-linecap="round" opacity="0.85"/>
<line x1="460.6" y1="268.8" x2="499.2" y2="161.3" stroke="#2dd4bf" stroke-width="2.0" stroke-linecap="round" opacity="0.85"/>
<line x1="460.6" y1="268.8" x2="473.8" y2="232.2" stroke="#2dd4bf" stroke-width="1.3" stroke-linecap="round" opacity="0.85"/>
<line x1="463.1" y1="269.7" x2="499.0" y2="174.5" stroke="#2dd4bf" stroke-width="1.8" stroke-linecap="round" opacity="0.85"/>
<line x1="465.5" y1="270.6" x2="488.8" y2="211.9" stroke="#2dd4bf" stroke-width="1.4" stroke-linecap="round" opacity="0.85"/>
<line x1="470.2" y1="272.6" x2="514.9" y2="170.7" stroke="#2dd4bf" stroke-width="2.0" stroke-linecap="round" opacity="0.85"/>
<line x1="472.6" y1="273.7" x2="489.3" y2="237.2" stroke="#f472b6" stroke-width="1.5" stroke-linecap="round" opacity="0.85"/>
<line x1="474.9" y1="274.8" x2="511.6" y2="198.4" stroke="#2dd4bf" stroke-width="1.7" stroke-linecap="round" opacity="0.85"/>
<line x1="477.2" y1="275.9" x2="514.0" y2="202.6" stroke="#60a5fa" stroke-width="1.8" stroke-linecap="round" opacity="0.85"/>
<line x1="479.5" y1="277.1" x2="530.3" y2="180.0" stroke="#2dd4bf" stroke-width="1.9" stroke-linecap="round" opacity="0.85"/>
<line x1="484.1" y1="279.6" x2="488.4" y2="271.9" stroke="#f472b6" stroke-width="1.8" stroke-linecap="round" opacity="0.85"/>
<line x1="490.7" y1="283.6" x2="556.1" y2="181.1" stroke="#2dd4bf" stroke-width="2.1" stroke-linecap="round" opacity="0.85"/>
<line x1="499.2" y1="289.4" x2="534.0" y2="242.4" stroke="#60a5fa" stroke-width="1.7" stroke-linecap="round" opacity="0.85"/>
<line x1="501.3" y1="291.0" x2="602.6" y2="158.8" stroke="#60a5fa" stroke-width="5.2" stroke-linecap="round" opacity="0.85"/>
<line x1="503.3" y1="292.6" x2="567.8" y2="211.4" stroke="#60a5fa" stroke-width="3.1" stroke-linecap="round" opacity="0.85"/>
<line x1="509.2" y1="297.5" x2="581.4" y2="215.8" stroke="#2dd4bf" stroke-width="1.9" stroke-linecap="round" opacity="0.85"/>
<line x1="520.3" y1="308.4" x2="578.9" y2="254.4" stroke="#2dd4bf" stroke-width="1.6" stroke-linecap="round" opacity="0.85"/>
<line x1="523.7" y1="312.2" x2="523.7" y2="312.2" stroke="#f472b6" stroke-width="2.0" stroke-linecap="round" opacity="0.85"/>
<line x1="527.0" y1="316.2" x2="527.0" y2="316.2" stroke="#f472b6" stroke-width="1.7" stroke-linecap="round" opacity="0.85"/>
<line x1="528.6" y1="318.2" x2="610.7" y2="254.8" stroke="#2dd4bf" stroke-width="1.9" stroke-linecap="round" opacity="0.85"/>
<line x1="531.7" y1="322.4" x2="607.7" y2="267.7" stroke="#2dd4bf" stroke-width="1.7" stroke-linecap="round" opacity="0.85"/>
<line x1="533.2" y1="324.5" x2="533.2" y2="324.5" stroke="#f472b6" stroke-width="1.8" stroke-linecap="round" opacity="0.85"/>
<line x1="534.7" y1="326.6" x2="605.4" y2="279.3" stroke="#2dd4bf" stroke-width="1.6" stroke-linecap="round" opacity="0.85"/>
<line x1="537.5" y1="330.9" x2="609.2" y2="286.4" stroke="#2dd4bf" stroke-width="1.7" stroke-linecap="round" opacity="0.85"/>
<line x1="538.8" y1="333.1" x2="538.8" y2="333.1" stroke="#f472b6" stroke-width="1.8" stroke-linecap="round" opacity="0.85"/>
<line x1="540.1" y1="335.4" x2="615.0" y2="292.4" stroke="#2dd4bf" stroke-width="1.6" stroke-linecap="round" opacity="0.85"/>
<line x1="543.8" y1="342.2" x2="631.1" y2="297.9" stroke="#2dd4bf" stroke-width="1.8" stroke-linecap="round" opacity="0.85"/>
<line x1="546.1" y1="346.8" x2="656.2" y2="295.7" stroke="#2dd4bf" stroke-width="2.1" stroke-linecap="round" opacity="0.85"/>
<line x1="548.1" y1="351.6" x2="636.1" y2="314.3" stroke="#2dd4bf" stroke-width="1.7" stroke-linecap="round" opacity="0.85"/>
<line x1="550.1" y1="356.3" x2="636.6" y2="323.2" stroke="#2dd4bf" stroke-width="1.7" stroke-linecap="round" opacity="0.85"/>
<line x1="551.8" y1="361.2" x2="551.8" y2="361.2" stroke="#f472b6" stroke-width="2.2" stroke-linecap="round" opacity="0.85"/>
<line x1="553.4" y1="366.1" x2="553.4" y2="366.1" stroke="#f472b6" stroke-width="1.5" stroke-linecap="round" opacity="0.85"/>
<line x1="554.9" y1="371.1" x2="649.4" y2="345.7" stroke="#2dd4bf" stroke-width="1.8" stroke-linecap="round" opacity="0.85"/>
<line x1="555.5" y1="373.6" x2="656.1" y2="348.4" stroke="#2dd4bf" stroke-width="1.9" stroke-linecap="round" opacity="0.85"/>
<line x1="557.2" y1="381.1" x2="721.9" y2="348.8" stroke="#60a5fa" stroke-width="2.8" stroke-linecap="round" opacity="0.85"/>
<line x1="557.7" y1="383.7" x2="672.6" y2="363.2" stroke="#60a5fa" stroke-width="2.2" stroke-linecap="round" opacity="0.85"/>
<line x1="558.5" y1="388.8" x2="608.9" y2="381.6" stroke="#a3e635" stroke-width="1.7" stroke-linecap="round" opacity="0.85"/>
<line x1="558.8" y1="391.3" x2="633.0" y2="382.0" stroke="#2dd4bf" stroke-width="1.5" stroke-linecap="round" opacity="0.85"/>
<line x1="559.4" y1="396.5" x2="663.0" y2="387.1" stroke="#2dd4bf" stroke-width="1.9" stroke-linecap="round" opacity="0.85"/>
<line x1="559.8" y1="401.6" x2="682.1" y2="394.8" stroke="#2dd4bf" stroke-width="2.1" stroke-linecap="round" opacity="0.85"/>
<line x1="560.0" y1="406.8" x2="560.0" y2="406.8" stroke="#f472b6" stroke-width="2.1" stroke-linecap="round" opacity="0.85"/>
<line x1="560.0" y1="409.4" x2="669.5" y2="408.9" stroke="#2dd4bf" stroke-width="2.0" stroke-linecap="round" opacity="0.85"/>
<line x1="559.9" y1="414.5" x2="666.4" y2="417.7" stroke="#2dd4bf" stroke-width="1.9" stroke-linecap="round" opacity="0.85"/>
<line x1="559.5" y1="422.3" x2="650.6" y2="429.7" stroke="#2dd4bf" stroke-width="1.7" stroke-linecap="round" opacity="0.85"/>
<line x1="559.0" y1="427.4" x2="656.0" y2="438.7" stroke="#2dd4bf" stroke-width="1.9" stroke-linecap="round" opacity="0.85"/>
<line x1="558.3" y1="432.5" x2="648.7" y2="446.2" stroke="#2dd4bf" stroke-width="1.7" stroke-linecap="round" opacity="0.85"/>
<line x1="557.4" y1="437.6" x2="557.4" y2="437.6" stroke="#f472b6" stroke-width="1.7" stroke-linecap="round" opacity="0.85"/>
<line x1="556.9" y1="440.1" x2="669.2" y2="463.2" stroke="#2dd4bf" stroke-width="2.0" stroke-linecap="round" opacity="0.85"/>
<line x1="555.8" y1="445.2" x2="628.7" y2="462.8" stroke="#2dd4bf" stroke-width="1.5" stroke-linecap="round" opacity="0.85"/>
<line x1="554.5" y1="450.2" x2="636.7" y2="473.0" stroke="#2dd4bf" stroke-width="1.6" stroke-linecap="round" opacity="0.85"/>
<line x1="553.1" y1="455.1" x2="657.2" y2="488.0" stroke="#2dd4bf" stroke-width="1.9" stroke-linecap="round" opacity="0.85"/>
<line x1="550.5" y1="462.4" x2="634.2" y2="493.7" stroke="#2dd4bf" stroke-width="1.7" stroke-linecap="round" opacity="0.85"/>
<line x1="550.5" y1="462.4" x2="656.2" y2="501.9" stroke="#f59e0b" stroke-width="1.9" stroke-linecap="round" opacity="0.85"/>
<line x1="548.6" y1="467.3" x2="644.9" y2="507.0" stroke="#2dd4bf" stroke-width="1.9" stroke-linecap="round" opacity="0.85"/>
<line x1="547.6" y1="469.6" x2="610.9" y2="497.1" stroke="#2dd4bf" stroke-width="1.6" stroke-linecap="round" opacity="0.85"/>
<line x1="546.6" y1="472.0" x2="593.1" y2="493.1" stroke="#a3e635" stroke-width="1.9" stroke-linecap="round" opacity="0.85"/>
<line x1="545.5" y1="474.3" x2="633.8" y2="516.2" stroke="#2dd4bf" stroke-width="1.8" stroke-linecap="round" opacity="0.85"/>
<line x1="543.2" y1="479.0" x2="630.1" y2="523.9" stroke="#2dd4bf" stroke-width="1.8" stroke-linecap="round" opacity="0.85"/>
<line x1="540.8" y1="483.5" x2="611.7" y2="523.4" stroke="#2dd4bf" stroke-width="1.6" stroke-linecap="round" opacity="0.85"/>
<line x1="536.8" y1="490.2" x2="625.6" y2="546.3" stroke="#2dd4bf" stroke-width="1.8" stroke-linecap="round" opacity="0.85"/>
<line x1="534.0" y1="494.5" x2="608.4" y2="545.2" stroke="#2dd4bf" stroke-width="1.7" stroke-linecap="round" opacity="0.85"/>
<line x1="531.0" y1="498.7" x2="531.0" y2="498.7" stroke="#f472b6" stroke-width="1.8" stroke-linecap="round" opacity="0.85"/>
<line x1="529.4" y1="500.8" x2="577.5" y2="537.3" stroke="#a3e635" stroke-width="1.9" stroke-linecap="round" opacity="0.85"/>
<line x1="527.8" y1="502.8" x2="629.5" y2="582.9" stroke="#2dd4bf" stroke-width="2.2" stroke-linecap="round" opacity="0.85"/>
<line x1="527.8" y1="502.8" x2="547.7" y2="518.5" stroke="#2dd4bf" stroke-width="1.3" stroke-linecap="round" opacity="0.85"/>
<line x1="522.9" y1="508.8" x2="601.3" y2="577.4" stroke="#2dd4bf" stroke-width="1.9" stroke-linecap="round" opacity="0.85"/>
<line x1="519.4" y1="512.6" x2="588.3" y2="577.2" stroke="#2dd4bf" stroke-width="1.7" stroke-linecap="round" opacity="0.85"/>
<line x1="515.8" y1="516.3" x2="594.3" y2="595.1" stroke="#2dd4bf" stroke-width="2.0" stroke-linecap="round" opacity="0.85"/>
<line x1="512.1" y1="519.9" x2="578.7" y2="591.5" stroke="#2dd4bf" stroke-width="1.8" stroke-linecap="round" opacity="0.85"/>
<line x1="508.3" y1="523.3" x2="570.0" y2="594.5" stroke="#2dd4bf" stroke-width="1.7" stroke-linecap="round" opacity="0.85"/>
<line x1="504.3" y1="526.6" x2="535.7" y2="565.4" stroke="#2dd4bf" stroke-width="1.5" stroke-linecap="round" opacity="0.85"/>
<line x1="502.3" y1="528.2" x2="502.3" y2="528.2" stroke="#f472b6" stroke-width="1.4" stroke-linecap="round" opacity="0.85"/>
<line x1="500.2" y1="529.8" x2="566.4" y2="617.7" stroke="#2dd4bf" stroke-width="2.0" stroke-linecap="round" opacity="0.85"/>
<line x1="496.1" y1="532.9" x2="546.4" y2="604.7" stroke="#2dd4bf" stroke-width="1.7" stroke-linecap="round" opacity="0.85"/>
<line x1="493.9" y1="534.3" x2="547.6" y2="613.8" stroke="#a3e635" stroke-width="3.0" stroke-linecap="round" opacity="0.85"/>
<line x1="489.6" y1="537.1" x2="550.4" y2="634.1" stroke="#2dd4bf" stroke-width="2.0" stroke-linecap="round" opacity="0.85"/>
<line x1="482.9" y1="541.1" x2="527.5" y2="621.1" stroke="#2dd4bf" stroke-width="1.8" stroke-linecap="round" opacity="0.85"/>
<line x1="480.7" y1="542.3" x2="521.8" y2="619.2" stroke="#f59e0b" stroke-width="1.4" stroke-linecap="round" opacity="0.85"/>
<line x1="478.4" y1="543.5" x2="523.0" y2="630.7" stroke="#2dd4bf" stroke-width="1.8" stroke-linecap="round" opacity="0.85"/>
<line x1="473.8" y1="545.8" x2="520.2" y2="644.6" stroke="#2dd4bf" stroke-width="1.9" stroke-linecap="round" opacity="0.85"/>
<line x1="469.0" y1="547.9" x2="503.4" y2="628.0" stroke="#2dd4bf" stroke-width="1.6" stroke-linecap="round" opacity="0.85"/>
<line x1="469.0" y1="547.9" x2="502.1" y2="625.1" stroke="#f59e0b" stroke-width="1.5" stroke-linecap="round" opacity="0.85"/>
<line x1="464.3" y1="549.8" x2="501.8" y2="646.5" stroke="#2dd4bf" stroke-width="1.9" stroke-linecap="round" opacity="0.85"/>
<line x1="459.4" y1="551.6" x2="479.3" y2="608.5" stroke="#2dd4bf" stroke-width="1.4" stroke-linecap="round" opacity="0.85"/>
<line x1="459.4" y1="551.6" x2="475.5" y2="597.7" stroke="#2dd4bf" stroke-width="1.3" stroke-linecap="round" opacity="0.85"/>
<line x1="459.4" y1="551.6" x2="473.7" y2="592.7" stroke="#2dd4bf" stroke-width="1.3" stroke-linecap="round" opacity="0.85"/>
<line x1="454.5" y1="553.2" x2="500.8" y2="702.2" stroke="#a3e635" stroke-width="5.2" stroke-linecap="round" opacity="0.85"/>
<line x1="447.1" y1="555.4" x2="469.4" y2="643.2" stroke="#2dd4bf" stroke-width="1.7" stroke-linecap="round" opacity="0.85"/>
<line x1="442.0" y1="556.5" x2="464.2" y2="657.9" stroke="#f59e0b" stroke-width="1.6" stroke-linecap="round" opacity="0.85"/>
<line x1="439.5" y1="557.1" x2="451.6" y2="617.3" stroke="#2dd4bf" stroke-width="1.4" stroke-linecap="round" opacity="0.85"/>
<line x1="439.5" y1="557.1" x2="449.4" y2="606.3" stroke="#2dd4bf" stroke-width="1.3" stroke-linecap="round" opacity="0.85"/>
<line x1="439.5" y1="557.1" x2="443.8" y2="578.5" stroke="#2dd4bf" stroke-width="1.2" stroke-linecap="round" opacity="0.85"/>
<line x1="434.4" y1="558.0" x2="451.0" y2="658.4" stroke="#2dd4bf" stroke-width="1.9" stroke-linecap="round" opacity="0.85"/>
<line x1="426.7" y1="559.1" x2="436.2" y2="643.3" stroke="#2dd4bf" stroke-width="1.7" stroke-linecap="round" opacity="0.85"/>
<line x1="424.2" y1="559.3" x2="431.6" y2="637.4" stroke="#a3e635" stroke-width="2.6" stroke-linecap="round" opacity="0.85"/>
<line x1="421.6" y1="559.6" x2="429.2" y2="656.7" stroke="#2dd4bf" stroke-width="1.8" stroke-linecap="round" opacity="0.85"/>
<line x1="416.5" y1="559.9" x2="420.3" y2="650.1" stroke="#2dd4bf" stroke-width="1.7" stroke-linecap="round" opacity="0.85"/>
<line x1="411.3" y1="560.0" x2="412.0" y2="645.0" stroke="#2dd4bf" stroke-width="1.7" stroke-linecap="round" opacity="0.85"/>
<line x1="406.1" y1="559.9" x2="403.9" y2="646.2" stroke="#2dd4bf" stroke-width="1.7" stroke-linecap="round" opacity="0.85"/>
<line x1="398.4" y1="559.6" x2="390.5" y2="661.2" stroke="#2dd4bf" stroke-width="1.9" stroke-linecap="round" opacity="0.85"/>
<line x1="393.3" y1="559.1" x2="382.0" y2="659.3" stroke="#2dd4bf" stroke-width="1.9" stroke-linecap="round" opacity="0.85"/>
<line x1="383.0" y1="557.6" x2="366.0" y2="650.6" stroke="#2dd4bf" stroke-width="1.8" stroke-linecap="round" opacity="0.85"/>
<line x1="372.9" y1="555.4" x2="351.5" y2="639.5" stroke="#2dd4bf" stroke-width="1.7" stroke-linecap="round" opacity="0.85"/>
<line x1="370.5" y1="554.7" x2="347.9" y2="637.2" stroke="#2dd4bf" stroke-width="1.6" stroke-linecap="round" opacity="0.85"/>
<line x1="363.0" y1="552.5" x2="332.4" y2="645.3" stroke="#2dd4bf" stroke-width="1.8" stroke-linecap="round" opacity="0.85"/>
<line x1="355.7" y1="549.8" x2="323.4" y2="633.3" stroke="#2dd4bf" stroke-width="1.7" stroke-linecap="round" opacity="0.85"/>
<line x1="355.7" y1="549.8" x2="331.0" y2="613.7" stroke="#a3e635" stroke-width="2.3" stroke-linecap="round" opacity="0.85"/>
<line x1="351.0" y1="547.9" x2="315.0" y2="631.9" stroke="#2dd4bf" stroke-width="1.7" stroke-linecap="round" opacity="0.85"/>
<line x1="343.9" y1="544.7" x2="295.1" y2="644.2" stroke="#2dd4bf" stroke-width="2.0" stroke-linecap="round" opacity="0.85"/>
<line x1="339.3" y1="542.3" x2="293.2" y2="628.6" stroke="#2dd4bf" stroke-width="1.8" stroke-linecap="round" opacity="0.85"/>
<line x1="332.6" y1="538.5" x2="270.8" y2="641.1" stroke="#2dd4bf" stroke-width="2.1" stroke-linecap="round" opacity="0.85"/>
<line x1="328.2" y1="535.7" x2="270.2" y2="625.0" stroke="#2dd4bf" stroke-width="1.9" stroke-linecap="round" opacity="0.85"/>
<line x1="326.1" y1="534.3" x2="277.6" y2="606.1" stroke="#f59e0b" stroke-width="1.6" stroke-linecap="round" opacity="0.85"/>
<line x1="323.9" y1="532.9" x2="269.0" y2="611.3" stroke="#2dd4bf" stroke-width="1.8" stroke-linecap="round" opacity="0.85"/>
<line x1="317.7" y1="528.2" x2="241.5" y2="625.9" stroke="#2dd4bf" stroke-width="2.2" stroke-linecap="round" opacity="0.85"/>
<line x1="313.7" y1="525.0" x2="235.6" y2="618.3" stroke="#f59e0b" stroke-width="2.0" stroke-linecap="round" opacity="0.85"/>
<line x1="307.9" y1="519.9" x2="238.3" y2="594.8" stroke="#2dd4bf" stroke-width="2.0" stroke-linecap="round" opacity="0.85"/>
<line x1="304.2" y1="516.3" x2="206.5" y2="614.4" stroke="#2dd4bf" stroke-width="2.4" stroke-linecap="round" opacity="0.85"/>
<line x1="298.8" y1="510.7" x2="215.0" y2="586.6" stroke="#2dd4bf" stroke-width="2.0" stroke-linecap="round" opacity="0.85"/>
<line x1="295.4" y1="506.8" x2="215.3" y2="574.5" stroke="#2dd4bf" stroke-width="1.9" stroke-linecap="round" opacity="0.85"/>
<line x1="292.2" y1="502.8" x2="154.0" y2="611.6" stroke="#a3e635" stroke-width="5.2" stroke-linecap="round" opacity="0.85"/>
<line x1="289.0" y1="498.7" x2="209.2" y2="557.2" stroke="#2dd4bf" stroke-width="1.9" stroke-linecap="round" opacity="0.85"/>
<line x1="286.0" y1="494.5" x2="208.5" y2="547.3" stroke="#2dd4bf" stroke-width="1.8" stroke-linecap="round" opacity="0.85"/>
<line x1="281.9" y1="488.0" x2="156.2" y2="564.4" stroke="#2dd4bf" stroke-width="2.6" stroke-linecap="round" opacity="0.85"/>
<line x1="279.2" y1="483.5" x2="193.9" y2="531.5" stroke="#2dd4bf" stroke-width="1.8" stroke-linecap="round" opacity="0.85"/>
<line x1="276.8" y1="479.0" x2="153.4" y2="542.8" stroke="#f59e0b" stroke-width="2.3" stroke-linecap="round" opacity="0.85"/>
<line x1="273.4" y1="472.0" x2="160.6" y2="523.2" stroke="#2dd4bf" stroke-width="2.6" stroke-linecap="round" opacity="0.85"/>
<line x1="271.4" y1="467.3" x2="193.0" y2="499.6" stroke="#2dd4bf" stroke-width="1.8" stroke-linecap="round" opacity="0.85"/>
<line x1="269.5" y1="462.4" x2="142.5" y2="509.8" stroke="#f59e0b" stroke-width="2.1" stroke-linecap="round" opacity="0.85"/>
<line x1="268.6" y1="460.0" x2="170.5" y2="494.7" stroke="#2dd4bf" stroke-width="1.9" stroke-linecap="round" opacity="0.85"/>
<line x1="266.9" y1="455.1" x2="119.1" y2="501.8" stroke="#2dd4bf" stroke-width="2.7" stroke-linecap="round" opacity="0.85"/>
<line x1="265.5" y1="450.2" x2="153.3" y2="481.4" stroke="#f59e0b" stroke-width="1.9" stroke-linecap="round" opacity="0.85"/>
<line x1="264.2" y1="445.2" x2="152.0" y2="472.2" stroke="#2dd4bf" stroke-width="2.0" stroke-linecap="round" opacity="0.85"/>
<line x1="262.6" y1="437.6" x2="131.5" y2="462.1" stroke="#a3e635" stroke-width="3.9" stroke-linecap="round" opacity="0.85"/>
<line x1="261.7" y1="432.5" x2="124.6" y2="453.3" stroke="#f59e0b" stroke-width="2.1" stroke-linecap="round" opacity="0.85"/>
<line x1="261.0" y1="427.4" x2="166.5" y2="438.4" stroke="#2dd4bf" stroke-width="1.8" stroke-linecap="round" opacity="0.85"/>
<line x1="260.5" y1="422.3" x2="176.0" y2="429.2" stroke="#2dd4bf" stroke-width="1.7" stroke-linecap="round" opacity="0.85"/>
<line x1="260.3" y1="419.7" x2="146.4" y2="427.0" stroke="#f59e0b" stroke-width="1.8" stroke-linecap="round" opacity="0.85"/>
<line x1="260.2" y1="417.1" x2="178.3" y2="421.0" stroke="#a3e635" stroke-width="2.2" stroke-linecap="round" opacity="0.85"/>
<line x1="260.0" y1="411.9" x2="30.0" y2="414.9" stroke="#a3e635" stroke-width="5.2" stroke-linecap="round" opacity="0.85"/>
<line x1="260.0" y1="409.4" x2="222.2" y2="409.2" stroke="#a3e635" stroke-width="1.5" stroke-linecap="round" opacity="0.85"/>
<line x1="260.1" y1="404.2" x2="157.1" y2="400.2" stroke="#2dd4bf" stroke-width="2.0" stroke-linecap="round" opacity="0.85"/>
<line x1="260.4" y1="399.0" x2="131.7" y2="389.6" stroke="#f59e0b" stroke-width="2.0" stroke-linecap="round" opacity="0.85"/>
<line x1="261.2" y1="391.3" x2="162.1" y2="378.9" stroke="#2dd4bf" stroke-width="1.9" stroke-linecap="round" opacity="0.85"/>
<line x1="261.9" y1="386.2" x2="147.8" y2="367.9" stroke="#2dd4bf" stroke-width="2.1" stroke-linecap="round" opacity="0.85"/>
<line x1="262.8" y1="381.1" x2="173.2" y2="363.6" stroke="#2dd4bf" stroke-width="1.7" stroke-linecap="round" opacity="0.85"/>
<line x1="264.5" y1="373.6" x2="124.5" y2="338.5" stroke="#f59e0b" stroke-width="2.2" stroke-linecap="round" opacity="0.85"/>
<line x1="266.6" y1="366.1" x2="146.5" y2="329.4" stroke="#2dd4bf" stroke-width="2.3" stroke-linecap="round" opacity="0.85"/>
<line x1="266.6" y1="366.1" x2="255.9" y2="362.9" stroke="#2dd4bf" stroke-width="1.2" stroke-linecap="round" opacity="0.85"/>
<line x1="269.0" y1="358.8" x2="161.6" y2="319.7" stroke="#2dd4bf" stroke-width="2.1" stroke-linecap="round" opacity="0.85"/>
<line x1="270.9" y1="353.9" x2="144.6" y2="303.1" stroke="#f59e0b" stroke-width="2.1" stroke-linecap="round" opacity="0.85"/>
<line x1="272.9" y1="349.2" x2="141.2" y2="290.8" stroke="#2dd4bf" stroke-width="2.5" stroke-linecap="round" opacity="0.85"/>
<line x1="275.1" y1="344.5" x2="141.7" y2="279.8" stroke="#f59e0b" stroke-width="2.3" stroke-linecap="round" opacity="0.85"/>
<line x1="277.4" y1="339.9" x2="186.0" y2="291.6" stroke="#2dd4bf" stroke-width="1.9" stroke-linecap="round" opacity="0.85"/>
<line x1="281.2" y1="333.1" x2="193.2" y2="280.7" stroke="#2dd4bf" stroke-width="1.9" stroke-linecap="round" opacity="0.85"/>
<line x1="283.9" y1="328.8" x2="167.8" y2="254.0" stroke="#f59e0b" stroke-width="2.2" stroke-linecap="round" opacity="0.85"/>
<line x1="286.8" y1="324.5" x2="208.0" y2="269.8" stroke="#2dd4bf" stroke-width="1.8" stroke-linecap="round" opacity="0.85"/>
<line x1="291.4" y1="318.2" x2="185.9" y2="236.6" stroke="#2dd4bf" stroke-width="2.2" stroke-linecap="round" opacity="0.85"/>
<line x1="296.3" y1="312.2" x2="200.2" y2="229.6" stroke="#f59e0b" stroke-width="1.9" stroke-linecap="round" opacity="0.85"/>
<line x1="301.5" y1="306.5" x2="239.3" y2="247.2" stroke="#2dd4bf" stroke-width="1.7" stroke-linecap="round" opacity="0.85"/>
<line x1="305.1" y1="302.8" x2="247.0" y2="243.5" stroke="#2dd4bf" stroke-width="1.6" stroke-linecap="round" opacity="0.85"/>
<line x1="308.8" y1="299.3" x2="255.7" y2="241.0" stroke="#2dd4bf" stroke-width="1.7" stroke-linecap="round" opacity="0.85"/>
<line x1="312.7" y1="295.8" x2="250.7" y2="223.1" stroke="#2dd4bf" stroke-width="1.8" stroke-linecap="round" opacity="0.85"/>
<line x1="316.7" y1="292.6" x2="247.2" y2="205.1" stroke="#f59e0b" stroke-width="2.3" stroke-linecap="round" opacity="0.85"/>
<line x1="318.7" y1="291.0" x2="255.7" y2="208.8" stroke="#2dd4bf" stroke-width="1.9" stroke-linecap="round" opacity="0.85"/>
<line x1="320.8" y1="289.4" x2="242.2" y2="183.1" stroke="#f59e0b" stroke-width="2.0" stroke-linecap="round" opacity="0.85"/>
<line x1="325.0" y1="286.4" x2="261.8" y2="194.5" stroke="#2dd4bf" stroke-width="2.0" stroke-linecap="round" opacity="0.85"/>
<line x1="331.5" y1="282.2" x2="255.2" y2="158.1" stroke="#f59e0b" stroke-width="2.7" stroke-linecap="round" opacity="0.85"/>
<line x1="338.2" y1="278.3" x2="279.9" y2="171.4" stroke="#f59e0b" stroke-width="1.9" stroke-linecap="round" opacity="0.85"/>
<line x1="342.8" y1="275.9" x2="288.6" y2="167.9" stroke="#f59e0b" stroke-width="1.8" stroke-linecap="round" opacity="0.85"/>
<line x1="347.4" y1="273.7" x2="289.7" y2="147.9" stroke="#2dd4bf" stroke-width="2.4" stroke-linecap="round" opacity="0.85"/>
<line x1="352.2" y1="271.6" x2="307.0" y2="163.5" stroke="#f59e0b" stroke-width="1.9" stroke-linecap="round" opacity="0.85"/>
<line x1="356.9" y1="269.7" x2="317.3" y2="164.9" stroke="#f59e0b" stroke-width="2.1" stroke-linecap="round" opacity="0.85"/>
<line x1="361.8" y1="268.0" x2="323.3" y2="154.6" stroke="#2dd4bf" stroke-width="2.1" stroke-linecap="round" opacity="0.85"/>
<line x1="369.2" y1="265.7" x2="335.6" y2="146.6" stroke="#f59e0b" stroke-width="2.0" stroke-linecap="round" opacity="0.85"/>
<line x1="374.2" y1="264.3" x2="349.8" y2="164.9" stroke="#2dd4bf" stroke-width="1.9" stroke-linecap="round" opacity="0.85"/>
<line x1="381.8" y1="262.7" x2="353.0" y2="112.6" stroke="#f59e0b" stroke-width="2.5" stroke-linecap="round" opacity="0.85"/>
<line x1="386.9" y1="261.8" x2="372.3" y2="168.4" stroke="#2dd4bf" stroke-width="1.8" stroke-linecap="round" opacity="0.85"/>
<line x1="392.0" y1="261.1" x2="381.4" y2="173.7" stroke="#2dd4bf" stroke-width="1.7" stroke-linecap="round" opacity="0.85"/>
<line x1="397.1" y1="260.6" x2="387.6" y2="150.2" stroke="#2dd4bf" stroke-width="2.0" stroke-linecap="round" opacity="0.85"/>
<line x1="402.3" y1="260.2" x2="396.7" y2="153.2" stroke="#f59e0b" stroke-width="2.0" stroke-linecap="round" opacity="0.85"/>
<text x="410.0" y="404.0" fill="#e2e8f0" font-family="system-ui" font-size="44" text-anchor="middle">2025</text>
<text x="410.0" y="436.0" fill="#64748b" font-family="system-ui" font-size="15" text-anchor="middle">194 activities &#183; 833 mi</text>
</svg>