<svg xmlns="http://www.w3.org/2000/svg" viewBox="0 0 640 480" preserveAspectRatio="xMidYMid slice"><style>svg{--art-bg:#1c2230;--art-faint:#2b3446;--art-col:#a78bfa;--art-col-dim:#6d5bd0;--art-col-hot:#f0abfc;--art-str:#f59e0b;--art-str-dim:#8a5f14;--art-run:#2dd4bf;--art-mtb:#f59e0b;--art-foot:#a3e635;--art-snow:#60a5fa;--art-other:#f472b6;--art-op-trace:0.30;--art-op-tangle:0.72;}@media (prefers-color-scheme:light){svg{--art-bg:#ffffff;--art-faint:#e4e7ee;--art-col:#7c3aed;--art-col-dim:#c4b5fd;--art-col-hot:#c026d3;--art-str:#b45309;--art-str-dim:#f3c98b;--art-run:#0d9488;--art-mtb:#b45309;--art-foot:#4d7c0f;--art-snow:#1d4ed8;--art-other:#be185d;--art-op-trace:0.50;--art-op-tangle:0.88;}}</style><rect width="640" height="480" fill="var(--art-bg, #1c2230)"/>
<path d="M320.0 155.0L330.1 155.6L340.0 157.4L349.6 160.3L362.1 158.1L373.3 160.8L383.2 166.7L390.2 175.7L398.4 183.7L403.0 194.2L409.4 203.7L411.2 215.1L411.1 226.4L413.0 237.2L412.1 248.2L405.3 258.0L406.1 269.1L402.0 279.1L398.3 289.4L394.6 300.6L385.6 307.6L379.4 317.8L366.3 318.4L357.7 325.6L347.4 329.7L336.9 333.8L325.7 335.4L314.5 332.5L303.9 329.6L294.4 323.8L285.7 317.8L273.1 319.4L262.3 315.6L253.7 308.2L247.1 299.1L236.8 292.5L234.9 280.6L230.4 270.3L229.1 259.1L232.3 247.8L233.2 237.4L235.9 227.5L235.2 216.8L235.1 205.6L239.3 195.5L247.2 187.8L250.7 176.6L258.3 168.4L267.4 162.0L276.3 154.8L286.4 149.5L297.3 146.0L309.5 152.0L310.4 159.2L302.8 168.8L294.4 171.2L286.1 174.0L277.6 177.0L270.7 182.8L263.8 188.6L254.7 193.1L251.8 202.4L247.4 210.6L240.9 218.4L235.9 227.5L236.9 237.5L238.4 247.3L244.5 255.9L248.5 264.2L251.7 272.6L259.4 278.3L260.9 288.0L267.8 293.7L274.6 299.5L280.5 307.0L285.7 317.8L295.9 318.8L306.0 317.7L315.4 317.3L324.4 314.3L333.2 313.5L342.3 312.9L350.8 310.0L360.2 308.0L363.8 297.3L372.8 294.4L377.4 286.5L385.4 281.3L391.4 274.0L395.0 265.4L401.1 257.1L397.3 246.9L396.9 237.7L397.0 228.5L392.7 220.1L388.1 212.4L385.9 203.7L379.7 197.1L375.2 189.5L367.8 184.5L361.6 178.2L355.6 170.7L349.6 160.3L340.0 157.4L330.1 155.6L320.0 155.0Z" fill="var(--art-col, #a78bfa)" opacity="0.50"/>
<path d="M320.0 102.8L336.5 101.5L353.2 102.6L368.5 109.4L384.1 115.0L397.1 125.5L409.6 136.0L422.6 146.2L431.2 160.2L439.7 174.0L442.3 190.4L445.7 205.7L449.9 220.6L454.9 236.0L454.0 251.9L444.3 266.2L440.3 280.7L436.7 295.6L428.3 308.3L422.3 323.0L408.5 331.1L400.3 345.2L390.6 359.6L376.3 367.9L360.3 372.0L342.5 365.0L328.2 378.3L312.1 373.6L295.5 376.1L280.1 370.6L263.9 367.2L251.5 355.9L236.6 349.3L224.2 338.7L215.4 324.9L203.4 313.6L196.1 299.0L190.4 283.8L185.4 268.3L186.4 251.9L186.8 236.0L190.6 220.7L197.5 206.5L199.4 191.1L202.6 175.3L209.3 160.6L220.3 148.8L230.4 136.0L245.1 128.8L257.0 117.3L271.7 110.0L287.3 104.5L304.6 111.1L305.3 116.7L293.1 128.6L279.9 131.9L267.0 136.7L253.0 140.5L243.8 151.6L232.2 159.7L224.3 171.4L215.0 182.1L205.2 193.4L197.5 206.5L198.2 221.8L199.4 236.4L200.6 250.6L206.1 264.0L209.0 277.5L214.6 290.2L221.8 302.0L227.4 315.2L238.9 323.5L249.3 332.6L259.3 342.8L273.7 345.2L285.7 352.3L299.5 353.9L312.9 360.0L326.8 355.2L342.5 365.0L353.9 350.9L366.1 344.6L378.5 339.1L393.8 336.7L408.5 331.1L415.0 317.1L426.5 307.2L432.7 293.7L440.3 280.7L444.3 266.2L439.0 250.6L439.0 236.5L441.3 221.9L439.3 207.4L433.1 194.1L422.8 183.3L415.2 171.7L404.9 162.4L396.2 151.6L384.8 143.8L371.8 139.0L359.9 132.5L346.5 130.5L333.5 126.3L320.0 123.2Z" fill="var(--art-col, #a78bfa)" opacity="0.67"/>
<path d="M320.0 59.9L341.5 59.4L362.5 64.3L383.4 69.4L401.6 81.1L420.8 90.4L436.0 105.4L451.6 119.6L465.4 135.6L477.2 153.3L484.0 173.5L492.4 192.9L495.3 213.8L495.2 234.8L495.1 255.6L486.0 275.0L489.0 297.1L479.9 316.2L472.6 336.3L461.2 354.5L444.2 368.0L425.7 378.4L408.0 389.0L391.9 403.2L372.5 412.1L350.9 412.2L330.5 417.1L309.5 416.7L289.0 412.6L267.0 413.6L247.1 405.5L227.3 397.0L209.2 385.2L193.7 370.1L179.9 353.6L164.5 338.2L154.7 318.7L150.6 297.3L144.8 276.9L146.2 255.5L145.3 234.8L149.5 214.5L155.4 195.0L159.5 174.9L164.6 154.3L174.9 135.9L187.8 119.1L202.6 103.8L219.7 91.1L238.6 81.5L256.2 68.2L277.0 61.9L299.7 69.8L300.3 74.6L283.6 89.5L266.1 95.0L247.0 97.8L231.5 108.6L216.7 120.2L202.8 132.8L190.4 147.0L179.4 162.5L167.3 178.1L158.5 195.9L156.2 215.6L156.8 235.2L157.1 254.5L164.4 272.8L169.2 291.0L180.1 306.6L189.7 322.3L197.6 339.3L210.9 352.4L225.7 363.5L240.8 374.0L256.6 383.8L274.3 389.6L291.2 400.1L310.5 400.7L329.5 400.3L348.8 400.5L366.2 391.2L384.4 386.1L403.9 382.0L419.4 370.3L431.2 354.5L441.3 338.4L453.2 324.1L465.3 309.2L471.2 291.1L484.7 274.7L481.5 254.4L482.6 235.2L479.0 216.3L473.6 198.0L469.2 179.5L458.8 163.5L449.2 147.3L437.8 132.2L424.7 118.5L408.0 109.3L392.8 98.2L374.3 93.7L356.9 87.2L338.5 84.9L320.0 82.1Z" fill="var(--art-col, #a78bfa)" opacity="0.83"/>
<path d="M320.0 15.2L346.4 18.0L372.8 21.6L398.5 28.6L422.4 40.5L444.0 55.9L466.8 69.7L486.1 88.1L499.7 111.0L516.5 131.7L525.3 156.7L535.3 181.2L536.4 207.7L540.4 233.5L534.9 259.2L527.4 283.6L527.5 310.2L517.9 334.3L500.9 354.2L492.8 380.2L474.6 399.2L454.4 416.0L433.8 432.6L409.8 443.9L385.7 455.3L359.6 460.5L333.1 460.2L306.9 460.6L281.6 453.7L256.6 447.7L231.3 441.3L205.1 434.6L184.7 417.3L163.5 401.3L148.2 379.4L130.1 359.9L122.4 334.1L110.0 311.0L104.1 285.5L101.0 259.5L104.8 233.6L111.3 208.8L116.5 184.4L124.5 160.7L135.2 138.1L148.6 117.0L164.3 97.6L182.3 80.2L202.1 65.0L223.7 52.3L246.5 42.2L270.4 34.9L295.0 30.5L295.0 30.5L270.4 34.9L246.5 42.2L223.7 52.3L202.1 65.0L182.3 80.2L164.3 97.6L148.6 117.0L135.2 138.1L124.5 160.7L116.5 184.4L111.3 208.8L113.4 233.9L118.7 257.9L123.0 281.5L130.2 304.2L136.6 327.4L153.0 345.4L164.1 366.5L182.6 381.5L199.3 398.1L220.3 408.8L238.6 424.9L260.2 435.9L283.8 441.6L308.1 440.6L331.9 441.1L355.0 434.8L377.5 428.3L400.3 422.3L420.8 410.7L441.7 399.4L459.4 383.6L474.9 365.7L495.9 351.1L503.1 327.2L512.2 305.0L525.6 283.3L525.4 258.3L521.4 234.0L520.9 210.0L511.8 187.6L505.7 164.7L493.0 144.6L483.1 123.0L465.3 107.1L448.7 90.7L431.8 74.0L410.3 64.1L388.4 55.8L366.4 48.2L343.5 43.0L320.0 42.8Z" fill="var(--art-col, #a78bfa)" opacity="1.00"/></svg>