<svg xmlns="http://www.w3.org/2000/svg" viewBox="0 0 640 480" preserveAspectRatio="xMidYMid slice"><style>svg{--art-bg:#1c2230;--art-faint:#2b3446;--art-col:#a78bfa;--art-col-dim:#6d5bd0;--art-col-hot:#f0abfc;--art-str:#f59e0b;--art-str-dim:#8a5f14;--art-run:#2dd4bf;--art-mtb:#f59e0b;--art-foot:#a3e635;--art-snow:#60a5fa;--art-other:#f472b6;--art-op-trace:0.30;--art-op-tangle:0.72;}@media (prefers-color-scheme:light){svg{--art-bg:#ffffff;--art-faint:#e4e7ee;--art-col:#7c3aed;--art-col-dim:#c4b5fd;--art-col-hot:#c026d3;--art-str:#b45309;--art-str-dim:#f3c98b;--art-run:#0d9488;--art-mtb:#b45309;--art-foot:#4d7c0f;--art-snow:#1d4ed8;--art-other:#be185d;--art-op-trace:0.50;--art-op-tangle:0.88;}}</style><rect width="640" height="480" fill="var(--art-bg, #1c2230)"/>
<path d="M232 379L229 372L229 369L209 359L204 355L211 350L212 346L206 338L207 334L205 326L207 325L223 324L227 330L234 331L234 333L231 336L232 339L233 349L235 355L240 366L244 367L240 384L237 384L236 390L211 378L207 374L173 320L163 309L155 304L136 297L163 309L170 317L207 375L212 379L236 391L232 389L230 390L224 391L241 401L252 416L271 415L281 416L275 398L273 389L268 391L271 399L273 393L279 403L271 415L253 416L242 401L234 395L228 394L233 395L224 398L224 391L231 385L235 389L229 387L230 378L233 374L228 371L218 359L213 361L213 364L211 364L210 361L211 364L209 378L211 376L215 372L218 369L224 372L230 380L231 383L229 388L225 392L221 395L228 399L232 392L235 390L233 390L233 386L232 385L226 391L225 399L221 399L225 423L228 423L229 417L234 416L231 409L235 406L236 411L242 410L243 414L250 413L245 408L243 401L226 399L232 391L232 385L233 390L237 390L234 388L231 388L230 384L230 390L224 390L219 398L223 421L227 422L227 426L240 425L235 410L240 409L241 412L247 412L243 407L242 401L238 399L224 390L230 390L230 384L231 388L235 388L236 390L235 388L231 384L230 384L223 390L224 398L243 408L248 413L271 415L278 417L279 402L274 397L274 398L278 402L278 416L271 414L248 412L243 407L240 400L224 398L230 390L230 384L231 389L237 390L243 387L248 367L241 363L177 293L167 281L131 263L122 224L117 217L102 213L72 190L92 209L111 214L119 219L126 251L137 269L161 278L177 293L216 351L238 362L241 366L241 383L237 383L237 390L233 384L231 380L230 371L231 368L210 358L209 350L212 349L207 337L208 333L208 324L224 323L228 329L236 330L232 333L231 335L232 346L234 348L241 357L242 363L241 366L241 383L237 383L237 389L237 395L250 405L251 410L244 418L241 421L231 425L238 430L232 436L225 436L218 428L213 428L207 418L208 415L205 405L209 402L222 398L226 400L247 402L242 397L237 405L236 403L237 395L237 389L244 384L235 369L241 353L234 327L239 300L252 273L261 262L276 267L262 282L262 292L259 305L260 322L262 331L263 346L269 354L273 371L269 369L259 368L245 366L240 378L236 383L234 388L237 391L227 385L214 394L191 380L173 386L153 386L141 386L133 381L108 358L103 358L85 367L67 366L66 366L86 367L98 357L106 356L124 369L138 381L150 388L170 384L182 382L210 394L216 391L237 391L234 393L233 394L227 394L222 402L226 426L230 426L250 429L251 423L273 419L282 421L284 420L281 405L284 420L274 418L252 417L247 411L227 402L227 395L233 394L234 393L238 393L243 394L244 392L245 401L242 401L254 393L262 390L265 387L276 400L285 416L277 419L273 406L289 407L289 413L281 420L289 424L296 418L299 407L300 394L307 400L293 414L277 401L270 391L255 384L244 392L243 393L238 392L238 388L236 393L230 394L229 401L226 401L230 425L234 426L254 427L254 415L250 410L248 404L240 402L240 398L234 396L239 397L239 402L230 401L230 393L237 393L238 392L241 392L243 393L239 379L234 379L228 386L223 386L216 380L201 364L198 382L193 382L193 393L201 399L205 396L210 398L217 388L230 391L243 394L246 398L255 395L259 399L266 395L249 389L248 397L244 397L242 392L241 391L237 391L235 393L229 393L229 400L225 400L233 425L234 429L253 427L254 415L249 410L239 401L239 397L242 397L233 396L234 397L239 401L230 400L230 393L236 393L237 391L241 391L241 392L245 389L247 389L252 369L247 369L245 366L221 354L215 349L181 295L173 285L165 280L140 269L167 281L173 285L181 294L217 352L245 366L247 369L250 370L246 384L241 387L241 392L236 391L235 387L234 393L228 393L197 396L192 394L191 395L183 387L166 366L155 361L157 357L165 366L172 370L177 376L191 395L192 394L197 396L227 401L235 393L235 387L236 387L239 391L240 393L239 391L227 390L226 382L224 379L218 383L209 384L200 398L203 393L207 388L209 384L218 384L223 379L226 382L228 391L231 390L237 391L238 391L238 389L222 380L199 362L176 350L152 339L142 343L138 367L132 371L119 392L128 399L118 417L118 427L114 420L130 404L118 388L128 374L137 371L134 355L143 333L160 341L178 345L210 376L223 380L237 387L235 385L231 386L230 381L223 387L223 395L218 395L223 419L226 419L227 423L247 421L248 423L263 420L263 422L266 422L247 422L248 409L243 404L241 398L224 395L230 387L230 381L231 386L234 386L233 380L230 375L235 386L232 375L230 375L235 386L232 375L230 375L235 386L233 379L231 375L230 375L235 386L234 380L231 375L229 375L232 372L237 370L240 367L226 375L207 362L185 365L165 369L154 362L138 350L121 341L119 340L104 349L93 347L82 348L101 348L119 340L124 338L141 353L156 367L165 369L185 365L207 362L229 376L231 370L229 364L225 365L229 374L226 364L225 365L226 364L225 364L229 376L227 365L226 364L229 376L227 365L226 364L225 364L228 377L224 366L222 366L228 376L225 367L228 377L226 370L224 366L224 359L244 343L247 340L251 336L250 321L250 311L258 302L256 296L263 291L264 288L266 279L271 278L270 273L266 276L254 291L258 302L260 310L250 311L240 318L240 326L241 332L228 342L231 349L233 351L253 371L254 375L255 388L291 386L299 390L307 387L322 388L327 388L331 396L320 422L308 418L284 413L276 417L275 416L262 399L256 399L255 376L235 354L224 346L222 349L228 354L230 354L225 349L183 322L169 311L150 318L147 311L168 304L172 292L173 291L183 291L188 287L197 293L204 296L206 299L209 298L207 304L205 305L205 318L216 328L212 335L219 344L223 346L227 352L229 355L231 355L231 356L230 355L229 356L231 356L230 355L230 356L231 356L229 356L231 356L229 356L230 355L231 356L230 355L229 356L230 357L230 355L229 355L230 355L231 356L229 355L225 346L229 356L225 345L230 354L227 344L226 343L225 345L224 345L225 346L224 345L229 356L225 345L224 345L229 356L224 345L224 345L229 354L224 345L231 354L233 349L229 342L228 353L224 345L223 343L219 339L218 339L212 345L211 353L176 346L174 347L161 328L155 322L116 293L138 313L138 313L155 322L169 342L174 347L205 373L190 356L176 346L180 348L212 345L218 345L219 343L222 343L227 348L227 347L235 343L243 338L245 326L243 323L239 316L226 300L222 291L212 280L197 269L191 256L179 242L175 222L181 223L184 218L181 213L180 209L173 198L179 198L172 189L165 193L161 199L159 197L156 198L156 194L155 193L154 199L148 199L148 207L143 207L148 231L152 231L153 236L172 233L173 221L168 216L166 210L148 207L148 199L154 199L155 193L156 198L159 198L161 199L159 198L155 198L154 193L154 199L148 199L147 207L147 231L151 232L151 236L157 236L171 233L167 216L166 210L155 208L155 216L153 216L151 208L152 208L148 207L148 200L154 193L155 198L162 199L161 197L157 193L156 193L155 199L148 207L144 207L149 231L153 231L173 233L174 222L169 216L157 208L156 215L155 216L149 206L149 199L155 199L156 193L163 199L166 198L161 199L159 198L162 197L156 187L155 175L134 165L137 156L133 131L151 132L161 137L161 143L165 154L165 167L179 164L180 154L188 153L191 158L191 164L179 163L137 156L137 166L135 185L142 179L145 176L156 187L161 197L160 196L156 192L155 192L148 198L149 205L168 215L177 223L196 222L205 223L203 210L198 200L196 200L199 205L203 210L196 222L178 223L168 215L166 207L148 205L155 198L155 192L156 196L162 197L180 169L145 204L143 185L177 150L147 205L144 184L160 162L146 205L149 197L150 179L174 155L212 149L210 180L220 196L221 197L208 221L197 228L219 223L218 210L220 196L185 217L198 205L218 187L210 186L208 191L204 193L202 190L204 187L202 183L204 180L208 181L210 177L213 178L214 182L212 186L218 188L221 188L227 188L219 168L225 152L217 126L222 98L235 72L244 61L259 65L254 75L245 81L242 82L245 90L242 103L243 118L246 144L252 153L256 166L263 188L268 195L245 181L237 193L223 194L216 192L217 184L220 178L215 176L203 161L195 162L192 159L198 153L161 94L198 152L195 154L191 158L198 163L198 169L195 179L197 182L200 177L203 176L212 177L212 180L217 184L216 192L222 194L219 192L228 182L233 177L256 170L262 168L267 165L274 162L290 157L290 154L284 149L278 144L284 137L278 144L284 149L286 154L290 156L275 162L265 168L260 170L238 179L233 177L219 191L222 194L215 192L218 188L219 178L214 175L216 172L205 163L200 168L195 177L194 180L195 182L196 182L202 176L203 173L211 177L211 179L214 182L211 195L210 198L211 202L213 201L218 192L222 193L222 194L223 195L195 178L155 116L142 106L136 108L142 116L161 132L165 147L177 160L184 181L190 187L194 194L191 205L192 207L196 202L199 201L203 199L209 203L208 204L215 213L212 217L214 222L217 221L225 219L226 217L235 217L244 219L258 216L265 209L282 206L294 215L334 236L335 233L335 233L338 237L322 218L305 213L294 202L279 196L273 202L263 195L243 200L235 205L226 217L224 219L217 220L210 212L207 211L208 213L206 216L206 223L206 222L211 221L212 220L214 221L217 220L216 223L216 225L224 229L226 231L226 229L213 229L210 226L204 231L187 240L161 250L153 254L148 262L144 264L142 260L140 266L135 273L135 274L140 266L141 261L144 264L148 262L154 254L162 250L187 240L204 231L209 226L213 230L226 229L226 230L229 230L230 222L212 212L196 208L181 194L176 192L171 190L143 193L109 188L116 190L142 193L169 191L176 192L181 195L197 209L212 212L231 222L229 231L226 230L194 218L182 219L161 223L149 216L136 206L118 192L100 203L88 201L70 196L65 192L64 179L64 187L66 195L90 202L97 203L109 193L119 193L144 217L152 221L164 222L185 223L203 216L224 230L220 224L221 215L218 208L197 198L197 190L194 177L198 164L211 163L223 170L219 175L219 186L223 194L228 200L235 203L240 193L241 182L250 185L251 191L254 196L248 204L245 209L233 228L225 229L215 237L207 231L208 221L205 208L201 212L196 215L192 193L199 188L194 176L195 163L211 162L222 169L218 174L221 187L227 199L234 202L240 188L248 180L249 187L254 194L248 207L241 211L224 228L226 228L226 226L222 224L220 225L225 228L226 227L226 226L222 224L221 224L221 226L225 228L226 228L226 226L222 224L220 224L221 226L224 228L226 228L226 226L221 224L221 226L224 228L220 220L215 214L209 218L207 222L203 218L197 214L177 207L170 205L179 216L184 220L192 232L205 227L204 225L204 221L213 230L223 228L225 232L228 233L230 231L230 225L229 227L226 232L225 229L219 227L221 223L220 219L222 214L218 210L219 207L205 196L198 197L194 194L195 192L200 188L160 124L155 120L148 116L125 107L149 117L159 124L199 186L203 190L230 203L229 206L233 207L241 196L235 180L233 178L224 178L213 174L208 178L206 186L202 182L201 173L207 161L199 136L206 155L201 173L202 181L208 178L212 174L216 175L231 176L233 177L235 188L240 194L240 198L233 207L237 205L242 206L244 204L249 208L253 204L257 208L260 206L264 209L265 207L275 202L282 196L287 197L298 193L302 194L308 201L338 220L360 224L371 227L377 223L383 225L386 224L396 235L400 230L400 229L397 225L395 227L396 228L394 232L398 238L401 234L397 230L400 231L401 229L396 225L394 229L395 235L399 240L398 238L402 234L408 233L400 233L397 230L398 231L395 233L396 237L404 248L394 234L393 229L396 228L392 224L394 219L386 223L383 230L381 232L382 237L375 244L364 245L363 245L369 256L363 262L354 257L351 255L342 249L338 244L340 227L352 223L357 226L378 229L378 227L392 228L396 231L395 228L395 226L394 225L391 230L392 231L395 228L396 226L394 225L391 231L393 231L396 227L394 225L391 230L393 231L396 227L394 225L391 229L392 231L395 228L391 223L392 213L389 207L368 197L367 189L365 176L363 168L368 163L382 162L394 169L389 174L390 185L394 193L398 199L405 202L411 192L413 186L420 180L419 187L424 190L419 203L415 208L407 221L405 223L402 226L401 233L403 235L403 236L405 239L408 241L405 243L410 246L408 247L398 242L394 242L393 250L398 254L400 259L391 245L392 242L396 241L394 237L393 235L398 232L405 223L405 221L393 221L394 225L389 229L373 229L375 236L377 248L381 248L387 246L390 240L398 235L398 243L398 246L409 246L415 238L416 234L415 224L415 231L412 234L410 231L404 222L401 222L403 224L405 222L401 216L402 206L398 200L373 186L380 181L375 169L373 162L378 156L392 155L398 162L403 165L400 178L403 185L408 192L415 195L421 186L421 174L429 174L429 179L435 188L429 196L425 201L416 216L409 217L404 219L403 220L397 226L385 230L440 272L443 265L433 253L433 251L435 246L432 241L427 235L428 241L425 246L427 248L426 246L425 240L430 239L428 232L422 228L422 225L417 222L416 217L417 221L423 222L416 231L406 234L396 238L391 240L386 242L369 247L357 258L343 266L333 274L333 278L333 274L339 270L344 270L362 258L374 248L401 238L407 234L416 232L423 222L418 221L416 219L417 220L423 220L420 231L406 234L402 236L402 238L389 243L417 232L424 224L429 224L427 222L424 222L424 220L417 220L416 219L423 223L421 233L424 237L416 234L374 249L366 254L370 262L357 274L357 274L369 263L379 252L398 247L425 242L422 245L422 245L426 242L440 236L452 237L453 237L440 235L430 234L430 223L416 221L423 225L407 237L369 251L362 261L339 273L333 281L334 284L354 274L358 271L371 259L383 251L386 253L390 250L405 240L413 241L417 241L429 241L434 237L430 236L432 229L428 226L420 223L416 221L417 225L421 230L414 237L374 252L369 252L366 254L362 250L362 238L362 228L360 224L362 215L359 212L359 213L363 215L360 222L363 228L360 222L362 231L364 233L368 240L373 239L416 224L416 222L417 232L397 243L386 247L362 252L362 231L362 216L362 210L368 205L364 202L373 203L379 204L384 197L365 203L370 204L374 205L374 209L362 217L361 232L362 252L388 246L392 245L421 231L416 224L423 227L449 235L452 234L460 234L470 230L466 241L459 240L448 237L443 237L417 244L414 248L436 257L436 252L433 253L438 255L414 248L416 243L405 242L405 242L421 242L421 236L412 232L409 224L415 224L454 212L476 201L498 187L516 182L541 181L547 171L574 140L589 126L598 131L612 130L614 124L601 131L589 123L583 128L550 164L539 178L522 183L502 185L482 199L462 207L426 225L409 224L409 223L418 220L422 217L431 209L435 203L444 205L451 202L449 210L447 225L450 225L449 211L452 206L452 198L455 199L455 185L453 180L452 183L444 184L439 193L433 203L433 206L419 220L408 224L408 234L393 244L354 254L351 228L350 216L374 206L368 211L357 207L362 206L370 205L364 212L348 214L347 221L337 234L333 245L329 256L324 282L305 291L327 281L360 255L388 243L403 236L407 226L412 215L393 202L391 203L390 209L389 217L386 217L384 212L382 212L381 214L377 216L375 220L381 232L380 238L385 243L395 245L398 244L399 242L397 239L389 235L389 236L397 239L399 242L406 232L411 242L386 253L347 273L322 290L310 294L288 305L262 328L231 343L216 349L212 359L191 369L191 369L212 360L216 347L228 347L253 331L262 335L287 322L294 299L314 297L343 274L390 252L408 241L394 245L356 257L351 244L353 235L349 229L352 227L348 230L348 235L338 239L334 233L303 234L305 243L305 249L310 252L319 257L321 272L321 273L325 288L348 282L377 266L387 262L403 252L407 245L408 255L398 261L380 268L353 274L351 261L354 242L353 233L347 233L348 240L339 242L305 238L303 261L304 283L287 295L275 304L267 308L270 328L289 319L316 311L336 293L386 267L402 257L407 247L423 251L424 250L433 224L438 221L449 200L450 189L457 186L479 182L488 173L484 169L487 167L482 170L490 175L499 177L495 183L493 203L494 223L484 222L462 215L440 233L431 252L409 250L407 248L393 252L375 270L367 289L363 307L338 310L328 330L287 348L254 359L246 364L225 349L210 293L220 296L227 353L244 364L254 359L267 353L321 333L338 312L361 307L367 289L375 270L392 253L408 247L409 254L403 256L400 260L383 268L377 270L349 286L334 294L323 307L325 310L345 299L349 296L362 284L374 276L380 277L381 275L397 265L404 266L408 266L423 262L417 262L412 258L414 249L407 246L394 251L357 264L353 257L351 250L353 241L349 235L352 234L348 236L348 241L344 243L338 245L339 244L303 239L306 256L310 258L316 258L318 263L321 279L329 297L360 277L367 263L390 251L407 247L392 266L352 275L352 254L353 241L352 234L345 238L341 246L333 239L302 247L288 257L292 258L300 256L305 256L303 283L283 297L266 310L268 327L289 320L308 313L323 305L359 278L406 257L407 247L396 251L386 251L385 251L382 244L366 251L359 266L355 260L352 254L353 244L349 239L364 235L373 221L367 212L363 193L372 190L377 189L384 187L401 187L409 189L410 193L422 216L422 230L407 250L400 265L360 280L353 267L354 247L356 238L366 233L374 223L368 205L372 193L365 190L349 188L327 191L303 210L317 210L339 211L340 217L355 220L371 232L349 239L350 252L353 269L357 282L407 251L402 251L401 254L404 241L406 237L408 250L410 251L405 254L405 252L410 253L404 254L409 250L410 252L405 254L409 250L406 255L405 252L410 251L410 252L405 255L404 254L405 252L410 253L407 249L407 254L420 254L431 255L448 257L450 257L454 252L473 250L474 265L468 268L462 269L454 267L447 265L443 267L426 265L424 267L419 265L407 266L401 266L379 275L404 265L409 258L407 256L407 254L406 257L393 259L359 273L356 271L355 266L362 272L367 270L366 259L367 256L374 251L375 248L374 252L367 256L366 259L367 267L370 273L384 267L381 259L385 263L389 261L389 258L392 257L406 255L402 265L401 270L409 268L409 267L406 265L409 258L413 260L414 269L417 271L423 254L423 250L418 270L414 274L414 264L413 260L410 258L409 258L406 264L409 266L409 268L401 270L402 265L406 255L425 249L431 247L434 244L450 242L441 240L438 235L452 227L444 226L439 227L433 230L429 235L422 227L419 225L416 238L414 229L407 242L400 234L394 241L392 233L381 247L376 245L393 260L407 256L413 260L411 270L423 268L433 270L448 270L454 270L468 265L474 261L484 257L516 257L524 250L524 249L516 257L485 257L474 260L473 264L451 266L447 270L434 270L422 268L412 270L413 260L407 257L408 265L403 268L361 286L330 307L324 298L317 270L309 268L303 265L301 268L295 266L290 267L288 263L295 256L303 264L309 268L317 269L320 289L325 306L349 297L361 286L403 268L408 265L407 257L408 266L388 277L388 279L353 297L335 309L317 317L307 324L295 324L275 342L249 350L232 368L221 369L225 370L240 353L262 353L282 333L295 324L315 322L329 310L353 297L365 288L408 266L407 261L393 266L354 272L352 268L353 259L348 250L351 248L347 251L347 256L337 260L336 257L333 254L304 270L308 273L320 279L325 309L328 312L359 291L379 284L404 277L415 278L410 273L406 262L406 262L408 270L402 273L398 277L383 285L364 292L352 302L344 308L329 315L329 314L344 308L357 299L360 302L372 293L379 293L388 287L402 283L405 281L414 283L423 282L419 277L414 278L410 273L407 265L405 267L394 269L356 282L355 276L360 276L362 282L370 284L384 278L385 276L385 274L390 272L406 271L407 268L414 269L418 270L419 273L414 274L415 269L427 270L432 269L412 269L407 267L406 266L417 262L436 240L450 244L453 242L454 227L464 232L464 238L466 230L467 226L471 227L466 213L467 204L461 206L456 212L456 225L450 225L444 225L435 216L432 227L429 238L431 243L418 262L407 266L407 269L425 244L423 235L415 225L411 214L410 195L406 193L402 186L355 159L339 156L325 159L355 159L397 183L402 187L411 195L410 214L412 220L414 225L424 243L423 249L416 262L408 269L407 267L393 252L383 251L381 255L385 279L384 282L374 281L365 277L364 268L352 263L343 272L337 273L333 278L335 282L347 285L364 279L372 291L380 298L381 295L398 297L392 275L396 270L398 258L407 267L408 275L402 278L386 287L379 290L359 297L335 315L326 315L324 309L316 279L309 279L301 276L299 276L291 279L287 277L295 266L303 273L307 276L313 278L320 287L324 309L347 309L388 287L406 269L407 279L398 284L375 294L352 288L352 278L349 258L351 256L344 260L343 265L337 265L303 261L302 283L297 309L269 332L263 336L268 352L288 342L317 329L343 311L376 294L397 284L406 279L406 269L407 278L355 301L350 282L353 266L348 260L361 255L355 248L369 251L374 247L367 234L362 213L374 210L370 209L378 209L384 205L400 206L401 203L410 217L421 234L430 242L433 242L421 273L406 270L405 272L419 275L426 277L431 276L448 277L468 272L471 271L473 274L472 286L460 288L449 289L445 286L442 287L422 287L419 285L415 287L410 283L398 285L401 281L407 279L406 277L401 271L405 271L422 274L431 241L423 239L413 229L408 205L399 207L391 205L380 210L375 212L366 228L373 242L379 242L388 235L384 222L376 212L399 211L407 212L412 228L423 241L431 241L431 246L421 275L405 272L406 276L425 278L431 276L437 278L443 275L468 274L472 272L467 274L443 275L436 278L431 276L424 277L409 275L405 274L405 272L406 281L397 287L377 295L358 302L327 323L323 313L319 290L311 283L305 280L301 265L335 268L343 268L340 278L333 285L330 292L328 302L319 304L323 319L340 316L358 302L378 294L401 283L405 273L411 273L422 275L423 287L444 288L457 292L467 292L474 295L486 293L486 322L534 322L540 323L542 326L542 325L539 322L485 322L463 312L458 308L457 292L446 288L423 287L422 275L411 273L406 273L404 283L413 277L424 276L432 243L424 243L414 231L403 205L391 207L382 213L363 216L367 239L376 243L389 237L385 224L382 212L392 207L402 206L410 208L422 240L429 246L433 245L423 268L406 274L406 274L418 279L433 248L429 247L423 245L410 224L401 208L391 209L381 214L372 214L358 215L347 212L336 212L314 223L301 239L307 254L302 252L308 285L320 292L324 323L328 325L376 299L396 290L406 275L407 278L418 278L417 281L413 284L407 286L403 291L412 284L423 283L424 279L430 279L440 282L442 279L439 277L441 274L439 274L433 274L431 274L427 278L423 278L422 278L423 276L408 278L406 276L406 276L405 282L407 285L398 291L395 292L395 293L390 297L358 307L352 316L334 328L328 329L322 333L321 337L322 336L322 333L329 329L333 328L358 307L364 307L397 293L403 292L407 284L405 282L405 277L403 271L400 271L395 274L387 282L388 283L389 283L392 288L387 290L383 287L383 290L394 293L398 285L387 283L389 283L391 286L388 290L380 290L385 292L389 294L398 285L397 279L401 271L406 277L406 277L419 281L452 279L467 279L472 281L501 280L522 271L539 260L544 260L558 268L561 263L575 265L561 263L558 268L540 267L529 268L522 270L514 278L481 278L460 285L450 286L448 285L407 280L406 277L407 276L407 274L410 270L412 270L412 273L410 276L408 279L406 280L407 281L389 286L389 284L373 307L363 317L355 315L349 315L341 312L328 301L323 308L319 317L310 320L304 339L312 353L316 360L325 357L343 340L345 331L353 327L365 323L375 321L404 325L406 317L406 281L402 270L421 273L429 265L440 260L449 264L453 255L447 258L432 253L414 243L399 224L388 201L358 202L352 208L344 220L342 226L334 251L339 267L352 275L359 275L380 283L394 281L404 279L406 287L418 291L431 264L430 260L420 251L409 221L396 221L384 223L375 229L385 244L383 257L387 260L394 259L401 253L404 248L395 241L376 229L400 226L409 222L414 246L423 255L431 259L422 280L406 287L412 287L418 292L414 300L410 303L400 310L407 322L411 317L417 315L423 314L420 308L414 310L413 302L418 296L412 287L405 287L399 290L391 291L388 292L385 292L388 292L397 295L403 293L406 287L423 291L432 257L423 258L408 221L400 224L388 224L365 227L351 228L335 225L314 236L300 252L252 250L255 217L242 195L230 183L213 177L180 169L164 172L152 177L154 204L162 216L171 235L165 232L152 237L114 249L110 240L111 230L107 224L110 220L105 219L102 224L101 229L95 231L94 228L92 225L61 224L61 240L70 243L76 247L78 250L82 271L86 283L118 262L145 254L160 244L165 236L164 239L164 240L161 241L158 244L158 252L153 249L140 246L130 245L134 242L130 239L127 236L127 236L130 239L134 243L131 245L140 247L152 249L157 251L158 245L161 241L164 240L164 239L165 236L152 237L165 235L169 233L171 235L170 233L165 236L166 242L168 243L169 241L166 245L163 246L168 243L165 242L152 244L149 242L152 245L152 247L152 244L146 236L148 239L157 236L168 236L167 235L168 243L159 250L146 255L138 259L112 264L112 245L113 231L109 223L120 221L117 213L128 215L134 214L128 201L123 178L142 174L168 175L170 170L182 200L184 203L192 205L186 222L184 238L166 237L167 245L159 251L121 266L88 287L84 278L80 255L76 249L68 247L61 245L58 245L51 247L47 246L52 240L54 235L63 244L67 245L73 247L80 255L83 276L88 287L118 267L163 247L166 238L176 234L189 217L194 212L199 197L190 192L179 185L177 186L178 200L166 192L172 195L171 193L167 192L168 200L167 200L163 201L158 204L162 202L159 204L146 211L142 222L158 228L161 236L165 238L164 236L160 232L159 232L158 238L152 239L122 241L117 239L115 240L107 232L90 211L79 206L81 202L79 206L100 220L109 235L115 240L117 239L151 246L152 239L159 238L159 232L160 237L164 237L166 241L160 245L163 247L170 243L174 243L175 242L176 244L179 243L187 244L187 240L184 235L185 232L171 236L169 234L169 236L168 236L166 235L165 241L167 244L161 246L155 253L124 265L119 266L112 275L104 281L94 287L88 288L82 293L93 287L104 281L112 275L119 266L123 266L159 252L155 251L158 250L161 246L167 243L166 242L166 235L166 239L172 242L179 240L179 251L185 254L195 255L202 254L206 255L224 255L229 253L236 250L238 248L245 248L253 247L256 242L257 243L255 238L251 230L245 230L232 237L204 239L185 242L166 238L165 229L161 222L155 194L142 157L138 139L137 131L140 118L138 92L133 58L133 44L133 58L140 114L140 120L137 130L138 139L142 158L154 193L160 222L165 230L165 237L168 237L168 235L167 238L163 237L151 239L148 237L155 234L164 234L165 231L166 240L160 242L141 253L123 261L111 271L103 277L87 284L76 290L53 298L40 307L26 322L47 304L58 296L73 296L83 287L92 283L111 271L118 262L150 251L157 246L166 240L164 232L165 231L166 240L157 246L118 261L87 281L84 279L79 249L72 241L65 239L59 241L54 239L49 240L45 239L51 234L60 231L65 240L70 241L76 247L83 272L87 281L117 262L159 243L167 240L165 231L152 233L120 246L116 247L114 245L117 247L121 246L153 233L165 231L165 229L164 229L162 232L164 236L164 249L164 255L160 259L161 261L146 271L141 272L135 276L134 280L136 275L142 271L146 271L157 265L168 254L168 251L164 247L164 236L162 232L165 229L188 214L192 208L202 188L211 184L223 200L224 191L230 189L228 173L224 169L215 174L215 187L201 188L191 183L182 182L178 190L170 192L164 192L160 193L153 198L146 202L147 214L166 219L163 229L177 233L179 223L187 202L180 200L169 189L167 191L144 202L138 202L143 195L146 190L129 168L124 168L126 151L138 153L146 159L149 163L161 161L167 178L180 199L186 202L190 200L180 222L163 229L164 238L157 240L163 245L172 246L176 244L187 246L199 248L209 247L214 248L220 249L230 244L230 240L226 234L207 239L207 241L194 241L182 242L176 244L172 245L167 240L161 241L165 238L163 230L160 234L161 236L155 246L142 243L129 239L131 235L132 236L138 241L152 244L154 243L159 236L161 233L161 236L156 246L142 243L128 239L129 234L128 239L139 241L152 246L156 239L162 235L163 230L170 234L171 233L180 199L179 181L189 174L209 180L298 163L314 161L326 153L334 153L335 153L325 153L318 155L299 162L249 186L251 200L241 205L222 196L214 199L195 218L190 233L185 235L163 231L180 224L189 201L180 202L168 184L160 164L149 165L138 171L142 183L146 196L137 202L130 207L126 214L103 218L102 227L95 230L60 238L71 242L77 263L84 281L116 261L140 253L158 243L163 233L178 237L180 226L189 203L181 202L178 200L166 167L154 168L145 170L134 173L142 191L146 198L133 203L130 204L123 196L120 176L141 170L153 168L166 167L168 188L181 202L189 203L180 226L163 234L162 236L165 237L176 238L182 240L187 239L209 236L225 236L228 234L229 235L229 238L220 239L216 243L217 239L229 238L229 234L225 236L209 236L204 241L180 240L176 238L163 236L162 234L164 233L166 242L157 248L106 274L82 280L78 266L73 245L67 245L61 240L89 225L95 230L99 232L103 231L93 242L90 246L86 265L82 274L81 291L93 281L117 263L138 255L149 252L160 244L164 235L163 237L157 237L172 245L177 243L175 239L172 239L177 242L175 239L173 239L172 245L177 243L177 239L172 239L172 245L177 242L175 239L172 245L177 243L175 239L172 239L172 238L164 238L164 237L181 232L187 231L194 227L207 224L196 223L195 217L207 211L206 209L199 208L194 210L186 208L178 210L175 213L171 211L166 222L160 222L158 217L154 221L149 213L138 229L132 228L141 244L164 237" fill="none" stroke="var(--art-str, #f59e0b)" stroke-width="0.95" stroke-linejoin="round" opacity="var(--art-op-tangle, 0.72)"/></svg>